<svg width="29" height="40" viewBox="0 0 29 40" fill="none" xmlns="http://www.w3.org/2000/svg">
<path d="M19.4108 16.7811C18.5214 16.7239 17.5161 18.2478 16.7234 21.7906C16.2014 24.0573 16.2208 25.0097 17.1294 25.0668C17.9994 25.1239 18.8694 23.8097 19.6814 19.9811C20.2421 17.4859 20.1648 16.8192 19.4108 16.7811Z" fill="#FCB91D"/>
<path d="M14.4418 1.65725C6.57316 1.67629 1.19849 15.6001 1.21783 23.7144C1.23716 31.8096 7.19183 38.3811 14.5385 38.343C21.8658 38.3239 27.8012 31.7334 27.7818 23.6192C27.7625 15.5239 22.3105 1.6382 14.4418 1.65725ZM23.3158 19.8287C22.7165 24.9334 20.5898 26.8192 18.3278 26.8192C16.6265 26.8192 15.9112 25.6192 15.7372 24.5144C15.6018 25.8858 15.0992 27.4477 15.0992 27.4477C14.0745 30.5525 12.0445 31.1049 9.45383 31.1049C7.07583 31.1049 6.16716 29.8858 6.34116 28.6668C6.47649 27.7334 7.07583 27.1811 7.88783 27.1811C8.62249 27.1811 9.14449 27.6572 9.10583 28.4572C9.04783 29.4287 8.25516 29.8858 7.44316 29.6953C7.79116 30.0953 8.37116 30.343 9.20249 30.343C11.5612 30.343 11.8512 27.9239 12.4118 24.9906L12.5085 24.5144C11.6578 26.1525 10.4785 26.8192 9.18316 26.8192C6.74716 26.8192 6.45716 24.8192 7.11449 22.0382L8.08116 18.5906C8.46783 16.8953 6.61183 16.9334 6.61183 16.9334C6.61183 16.9334 6.68916 16.5715 6.97916 16.1715C7.34649 15.6572 8.02316 15.0668 9.26049 15.0668C10.0145 15.0668 10.5558 15.2572 10.9232 15.6001C11.6772 16.3049 11.6385 17.6953 11.2132 19.4858L10.5945 22.0953C10.1112 24.0192 10.2272 25.143 10.8265 25.143C11.5225 25.143 12.5858 24.1525 13.3785 19.8858L14.2292 15.4096C14.2485 15.4096 14.4418 14.362 14.4998 13.943C14.6158 13.2192 14.5772 12.7049 13.7845 12.7049H13.3398L13.4752 10.8572C14.5965 10.8953 16.9938 10.8953 18.1152 10.8572C18.1152 12.1334 17.8832 13.3144 17.7285 14.1906L17.4578 15.6382C17.3418 16.2287 17.0712 17.6572 16.7812 19.2382C17.0518 18.5334 17.3612 17.8668 17.6898 17.2572C18.4825 15.7334 19.5072 15.0477 20.8218 15.0477C22.5812 14.9906 23.7025 16.5525 23.3158 19.8287Z" fill="#FCB91D"/>
</svg>
