<svg width="168" height="64" viewBox="0 0 168 64" fill="none" xmlns="http://www.w3.org/2000/svg">
<path d="M35.8555 3.20614C32.3392 1.1673 28.2573 0 23.9034 0C19.5494 0 15.467 1.1673 11.9512 3.20614C16.1415 3.21008 20.2723 4.3188 23.9034 6.4151C27.5338 4.31936 31.6652 3.21008 35.8555 3.20614Z" fill="#0066B1"/>
<path d="M3.20117 11.9745C7.2645 11.9705 11.3829 13.0049 15.1545 15.1868C17.3323 11.4072 20.3826 8.44721 23.9035 6.41513C20.2724 4.3194 16.1411 3.21012 11.9513 3.20618C8.32418 5.30924 5.29973 8.33961 3.20117 11.9745Z" fill="#98ADDA"/>
<path d="M15.1537 15.1867C11.3822 13.0042 7.26317 11.9699 3.2004 11.9744C1.16537 15.4988 0 19.59 0 23.955C4.35228 23.955 8.43303 25.1212 11.9482 27.1583C11.9454 23.0886 12.9776 18.9641 15.1537 15.1867Z" fill="#CDD5EE"/>
<path d="M32.6523 15.1869C36.4239 13.0044 40.5428 11.97 44.6056 11.9745C42.507 8.34022 39.4826 5.30929 35.8555 3.20679C31.6651 3.21073 27.5343 4.31945 23.9033 6.41575C27.4236 8.44726 30.4745 11.4072 32.6523 15.1869Z" fill="#98ADDA"/>
<path d="M23.9033 23.9478C25.931 20.4222 28.8829 17.3676 32.6522 15.1868C30.4744 11.4072 27.4241 8.44724 23.9033 6.41516C20.3824 8.44724 17.3316 11.4072 15.1543 15.1868C18.9236 17.3676 21.8755 20.4228 23.9033 23.9478Z" fill="#CDD5EE"/>
<path d="M23.9023 47.909C21.7228 44.126 20.6906 39.9948 20.6968 35.9199C18.5971 32.2879 15.5738 29.2592 11.9473 27.1578C11.9501 31.3555 13.0553 35.494 15.1443 39.1323C18.6691 41.1649 21.7233 44.126 23.9023 47.909Z" fill="#EE7100"/>
<path d="M35.8578 27.1583C39.373 25.1212 43.4532 23.955 47.8061 23.955C47.8061 19.5906 46.6407 15.4988 44.6057 11.9744C40.5423 11.9704 36.4239 13.0048 32.6523 15.1867C34.8285 18.9641 35.8606 23.0885 35.8578 27.1583Z" fill="#CDD5EE"/>
<path d="M27.1082 35.9199C27.102 31.7223 25.9945 27.5849 23.9027 23.9478C21.8109 27.5843 20.7029 31.7223 20.6973 35.9199C22.7357 39.4461 23.9027 43.5406 23.9027 47.909C23.9022 43.5406 25.0698 39.4461 27.1082 35.9199Z" fill="#FBB900"/>
<path d="M23.9028 47.909C23.9028 43.5406 22.7351 39.4461 20.6973 35.9199C20.6917 39.9948 21.7238 44.126 23.9028 47.909Z" fill="#EA5602"/>
<path d="M23.9023 47.909C26.0819 44.126 29.1355 41.1649 32.6603 39.1323C34.7493 35.494 35.8545 31.3555 35.8573 27.1578C32.2314 29.2592 29.2075 32.2873 27.1078 35.9199C27.114 39.9948 26.0819 44.126 23.9023 47.909Z" fill="#EE7100"/>
<path d="M27.1088 35.9199C25.0704 39.4461 23.9033 43.5406 23.9033 47.909C26.0823 44.126 27.1144 39.9948 27.1088 35.9199Z" fill="#EA5602"/>
<path d="M23.9023 47.9091C28.2614 47.9091 32.3472 46.739 35.8658 44.6968C39.49 42.5926 42.5122 39.5628 44.6091 35.9285C40.4204 35.9313 36.2908 37.0389 32.6603 39.1324C29.1361 41.165 26.0819 44.1261 23.9023 47.9091Z" fill="#D10007"/>
<path d="M23.9031 47.9091C21.7236 44.1261 18.6699 41.165 15.1451 39.1324C11.5146 37.0389 7.38498 35.9313 3.19629 35.9285C5.29316 39.5622 8.3148 42.5926 11.9396 44.6968C15.4582 46.739 19.5446 47.9091 23.9031 47.9091Z" fill="#D10007"/>
<path d="M67.4232 46.0872C68.7314 46.0872 69.7006 46.3897 70.3308 46.9947C70.9609 47.5998 71.2763 48.4668 71.2763 49.5958C71.2763 50.3327 71.1212 50.9766 70.8114 51.5276C70.5011 52.0786 70.0536 52.5062 69.4673 52.8104C68.8815 53.1146 68.1692 53.2667 67.331 53.2667C67.2287 53.2667 67.091 53.2634 66.9173 53.2566C66.7436 53.2498 66.5631 53.2448 66.3759 53.2414C66.1887 53.238 66.0167 53.2363 65.8599 53.2363C65.5805 53.2363 65.3078 53.238 65.0425 53.2414C64.7766 53.2448 64.5584 53.2532 64.3887 53.2667V53.0639C64.6135 53.0504 64.7822 53.0234 64.8946 52.9828C65.0071 52.9423 65.0818 52.8611 65.1195 52.7394C65.1566 52.6177 65.1757 52.4352 65.1757 52.1918V47.1621C65.1757 46.9119 65.1572 46.7277 65.1195 46.6094C65.0818 46.4911 65.0071 46.41 64.8946 46.366C64.7822 46.3221 64.6135 46.2967 64.3887 46.29V46.0872C64.559 46.0939 64.7771 46.1024 65.0425 46.1125C65.3084 46.1226 65.5737 46.1243 65.8396 46.1176C66.0847 46.1108 66.3607 46.1041 66.6677 46.0973C66.9735 46.0905 67.2254 46.0872 67.4232 46.0872ZM67.331 46.2697C67.0174 46.2697 66.8133 46.3272 66.7177 46.4421C66.6221 46.557 66.5749 46.7902 66.5749 47.1418V52.2121C66.5749 52.5637 66.6244 52.7969 66.7233 52.9118C66.8223 53.0268 67.028 53.0842 67.3417 53.0842C67.9753 53.0842 68.4711 52.9507 68.8286 52.6837C69.1862 52.4166 69.4386 52.0262 69.5848 51.5124C69.7309 50.9986 69.8046 50.3733 69.8046 49.6364C69.8046 48.8792 69.7242 48.2522 69.5645 47.7553C69.4043 47.2584 69.1435 46.8866 68.7825 46.6398C68.4211 46.3931 67.9376 46.2697 67.331 46.2697Z" fill="#3E1C1C"/>
<path d="M74.015 47.9124V52.3236C74.015 52.6076 74.0678 52.8002 74.1735 52.9016C74.2792 53.003 74.458 53.0538 74.7098 53.0538V53.2667C74.5873 53.2599 74.3995 53.2515 74.1477 53.2414C73.8952 53.2312 73.64 53.2261 73.3814 53.2261C73.129 53.2261 72.8738 53.2312 72.6152 53.2414C72.356 53.2515 72.1621 53.2599 72.0328 53.2667V53.0538C72.2846 53.0538 72.4634 53.003 72.5691 52.9016C72.6748 52.8002 72.7276 52.6076 72.7276 52.3236V49.1395C72.7276 48.8285 72.6782 48.6003 72.5792 48.455C72.4803 48.3096 72.2981 48.2369 72.0322 48.2369V48.024C72.2503 48.0443 72.4617 48.0544 72.6658 48.0544C72.9176 48.0544 73.1577 48.0426 73.3865 48.0189C73.6147 47.9953 73.8238 47.9598 74.015 47.9124ZM73.2993 45.4381C73.5444 45.4381 73.7457 45.5057 73.9025 45.6409C74.0594 45.7761 74.1375 45.9553 74.1375 46.1784C74.1375 46.4015 74.0594 46.5806 73.9025 46.7158C73.7457 46.851 73.545 46.9186 73.2993 46.9186C73.0542 46.9186 72.853 46.851 72.6961 46.7158C72.5393 46.5806 72.4612 46.4015 72.4612 46.1784C72.4612 45.9553 72.5393 45.7761 72.6961 45.6409C72.853 45.5057 73.0542 45.4381 73.2993 45.4381Z" fill="#3E1C1C"/>
<path d="M76.5996 53.3378C76.3067 53.3378 76.0576 53.282 75.8536 53.1704C75.6489 53.0589 75.496 52.9068 75.3937 52.7141C75.2914 52.5214 75.2402 52.3068 75.2402 52.0702C75.2402 51.7795 75.3083 51.5412 75.4449 51.3553C75.5809 51.1693 75.7563 51.0206 75.971 50.9091C76.1858 50.7975 76.4123 50.7029 76.6507 50.6251C76.8891 50.5474 77.1139 50.473 77.3253 50.402C77.5361 50.3311 77.7104 50.2482 77.8464 50.1536C77.9825 50.0589 78.0511 49.9339 78.0511 49.7784V49.0381C78.0511 48.8218 78.0185 48.6443 77.9538 48.5057C77.8892 48.3671 77.7936 48.2624 77.6677 48.1914C77.5417 48.1204 77.3832 48.0849 77.1926 48.0849C77.0498 48.0849 76.8997 48.1052 76.7429 48.1457C76.5861 48.1863 76.4568 48.264 76.3544 48.379C76.5315 48.4263 76.6693 48.5142 76.7682 48.6426C76.8666 48.7711 76.9166 48.9266 76.9166 49.1091C76.9166 49.3187 76.8469 49.4826 76.7069 49.6009C76.5669 49.7192 76.3915 49.7784 76.1807 49.7784C75.9559 49.7784 75.7855 49.7074 75.6697 49.5654C75.5539 49.4235 75.496 49.2578 75.496 49.0685C75.496 48.8792 75.5438 48.7221 75.6394 48.597C75.7349 48.4719 75.8676 48.3587 76.0379 48.2573C76.2083 48.1424 76.4264 48.0511 76.6917 47.9835C76.9577 47.9159 77.2472 47.8821 77.5603 47.8821C77.8599 47.8821 78.1258 47.9142 78.3574 47.9784C78.5891 48.0426 78.7869 48.1559 78.95 48.3181C79.1135 48.4736 79.2192 48.6663 79.267 48.8961C79.3148 49.126 79.3384 49.4066 79.3384 49.7378V52.5164C79.3384 52.6854 79.3587 52.8054 79.3997 52.8764C79.4407 52.9473 79.5054 52.9828 79.5936 52.9828C79.6617 52.9828 79.7263 52.9659 79.7876 52.9321C79.8489 52.8983 79.9169 52.851 79.9922 52.7902L80.1046 52.9626C79.9545 53.0775 79.7983 53.1688 79.6347 53.2364C79.4711 53.304 79.2738 53.3378 79.0422 53.3378C78.8038 53.3378 78.6143 53.304 78.4749 53.2364C78.335 53.1688 78.2332 53.0707 78.1685 52.9423C78.1039 52.8138 78.0679 52.6617 78.0612 52.4859C77.8976 52.7564 77.6963 52.9659 77.458 53.1147C77.2196 53.2634 76.9335 53.3378 76.5996 53.3378ZM77.2129 52.7699C77.3765 52.7699 77.5277 52.7259 77.6677 52.6381C77.8071 52.5502 77.9347 52.4183 78.0511 52.2426V50.1942C77.983 50.2956 77.8858 50.3868 77.7599 50.468C77.6339 50.5491 77.499 50.6302 77.3562 50.7113C77.2134 50.7924 77.0785 50.8854 76.9526 50.9902C76.8267 51.095 76.721 51.2234 76.6355 51.3755C76.5501 51.5277 76.5079 51.722 76.5079 51.9586C76.5079 52.2223 76.5726 52.4234 76.7024 52.562C76.8312 52.7006 77.0015 52.7699 77.2129 52.7699Z" fill="#3E1C1C"/>
<path d="M84.1933 53.3378C83.9004 53.3378 83.6514 53.282 83.4473 53.1704C83.2427 53.0589 83.0898 52.9068 82.9875 52.7141C82.8851 52.5214 82.834 52.3068 82.834 52.0702C82.834 51.7795 82.902 51.5412 83.0386 51.3553C83.1747 51.1693 83.3501 51.0206 83.5648 50.9091C83.7795 50.7975 84.0061 50.7029 84.2445 50.6251C84.4828 50.5474 84.7077 50.473 84.9191 50.402C85.1299 50.3311 85.3041 50.2482 85.4402 50.1536C85.5762 50.0589 85.6448 49.9339 85.6448 49.7784V49.0381C85.6448 48.8218 85.6122 48.6443 85.5476 48.5057C85.4829 48.3671 85.3873 48.2624 85.2614 48.1914C85.1355 48.1204 84.977 48.0849 84.7864 48.0849C84.6436 48.0849 84.4935 48.1052 84.3367 48.1457C84.1798 48.1863 84.0505 48.264 83.9482 48.379C84.1253 48.4263 84.263 48.5142 84.362 48.6426C84.4603 48.7711 84.5104 48.9266 84.5104 49.1091C84.5104 49.3187 84.4407 49.4826 84.3007 49.6009C84.1607 49.7192 83.9853 49.7784 83.7745 49.7784C83.5496 49.7784 83.3793 49.7074 83.2635 49.5654C83.1477 49.4235 83.0898 49.2578 83.0898 49.0685C83.0898 48.8792 83.1376 48.7221 83.2331 48.597C83.3287 48.4719 83.4614 48.3587 83.6317 48.2573C83.802 48.1424 84.0202 48.0511 84.2855 47.9835C84.5514 47.9159 84.8409 47.8821 85.154 47.8821C85.4537 47.8821 85.7196 47.9142 85.9512 47.9784C86.1828 48.0426 86.3807 48.1559 86.5437 48.3181C86.7073 48.4736 86.813 48.6663 86.8608 48.8961C86.9086 49.126 86.9322 49.4066 86.9322 49.7378V52.5164C86.9322 52.6854 86.9524 52.8054 86.9934 52.8764C87.0345 52.9473 87.0991 52.9828 87.1874 52.9828C87.2554 52.9828 87.3201 52.9659 87.3813 52.9321C87.4426 52.8983 87.5106 52.851 87.586 52.7902L87.6984 52.9626C87.5483 53.0775 87.392 53.1688 87.2284 53.2364C87.0648 53.304 86.8675 53.3378 86.6359 53.3378C86.3975 53.3378 86.2081 53.304 86.0687 53.2364C85.9287 53.1688 85.827 53.0707 85.7623 52.9423C85.6977 52.8138 85.6617 52.6617 85.6549 52.4859C85.4913 52.7564 85.2901 52.9659 85.0517 53.1147C84.8134 53.2634 84.5272 53.3378 84.1933 53.3378ZM84.8066 52.7699C84.9702 52.7699 85.1214 52.7259 85.2614 52.6381C85.4008 52.5502 85.5284 52.4183 85.6448 52.2426V50.1942C85.5768 50.2956 85.4795 50.3868 85.3536 50.468C85.2277 50.5491 85.0928 50.6302 84.95 50.7113C84.8072 50.7924 84.6723 50.8854 84.5463 50.9902C84.4204 51.095 84.3147 51.2234 84.2293 51.3755C84.1438 51.5277 84.1017 51.722 84.1017 51.9586C84.1017 52.2223 84.1663 52.4234 84.2962 52.562C84.4249 52.7006 84.5953 52.7699 84.8066 52.7699Z" fill="#3E1C1C"/>
<path d="M92.8195 47.882C93.1191 47.882 93.3884 47.9395 93.6268 48.0544C93.8651 48.1693 94.0422 48.362 94.158 48.6324L94.0355 48.7338C93.9399 48.5377 93.8106 48.3924 93.647 48.2978C93.4834 48.2031 93.2996 48.1558 93.095 48.1558C92.7273 48.1558 92.4322 48.3603 92.2107 48.7693C91.9892 49.1783 91.8784 49.8053 91.8784 50.6504C91.8784 51.2183 91.9228 51.6763 92.0111 52.0244C92.0994 52.3726 92.2275 52.6244 92.3945 52.7799C92.5615 52.9354 92.7605 53.0132 92.9921 53.0132C93.2372 53.0132 93.4587 52.9134 93.6566 52.714C93.8539 52.5146 93.9697 52.229 94.004 51.8571L94.0754 52.1411C93.9865 52.5535 93.8201 52.8678 93.5745 53.0841C93.3294 53.3005 93.0056 53.4086 92.6036 53.4086C92.1949 53.4086 91.8318 53.3089 91.5153 53.1095C91.1982 52.9101 90.9531 52.6058 90.7794 52.1968C90.6057 51.7878 90.5186 51.269 90.5186 50.6402C90.5186 50.025 90.6209 49.5129 90.8249 49.1039C91.0296 48.6949 91.305 48.389 91.653 48.1862C92.0021 47.9834 92.39 47.882 92.8195 47.882ZM95.2621 45.3265V52.1613C95.2621 52.4656 95.3133 52.6904 95.4156 52.8357C95.5179 52.9811 95.6983 53.0537 95.9575 53.0537V53.2667C95.7461 53.2464 95.5348 53.2363 95.3239 53.2363C95.0715 53.2363 94.8332 53.2464 94.6083 53.2667C94.3834 53.287 94.1721 53.3241 93.9747 53.3782V46.5434C93.9747 46.2392 93.9253 46.0144 93.8263 45.8691C93.7274 45.7237 93.5452 45.651 93.2793 45.651V45.4381C93.4975 45.4584 93.7088 45.4685 93.9129 45.4685C94.1715 45.4685 94.4138 45.4567 94.6387 45.433C94.8635 45.4094 95.0715 45.3739 95.2621 45.3265Z" fill="#3E1C1C"/>
<path d="M98.3997 47.9124V52.3236C98.3997 52.6076 98.4526 52.8002 98.5583 52.9016C98.664 53.003 98.8427 53.0538 99.0946 53.0538V53.2667C98.972 53.2599 98.7843 53.2515 98.5324 53.2414C98.28 53.2312 98.0248 53.2261 97.7662 53.2261C97.5138 53.2261 97.2585 53.2312 96.9999 53.2414C96.7408 53.2515 96.5469 53.2599 96.4176 53.2667V53.0538C96.6694 53.0538 96.8482 53.003 96.9539 52.9016C97.0595 52.8002 97.1124 52.6076 97.1124 52.3236V49.1395C97.1124 48.8285 97.0629 48.6003 96.964 48.455C96.865 48.3096 96.6829 48.2369 96.417 48.2369V48.024C96.6351 48.0443 96.8465 48.0544 97.0506 48.0544C97.3024 48.0544 97.5424 48.0426 97.7712 48.0189C97.9995 47.9953 98.2092 47.9598 98.3997 47.9124ZM97.6847 45.4381C97.9298 45.4381 98.131 45.5057 98.2879 45.6409C98.4447 45.7761 98.5229 45.9553 98.5229 46.1784C98.5229 46.4015 98.4447 46.5806 98.2879 46.7158C98.131 46.851 97.9303 46.9186 97.6847 46.9186C97.4396 46.9186 97.2383 46.851 97.0815 46.7158C96.9246 46.5806 96.8465 46.4015 96.8465 46.1784C96.8465 45.9553 96.9246 45.7761 97.0815 45.6409C97.2383 45.5057 97.439 45.4381 97.6847 45.4381Z" fill="#3E1C1C"/>
<path d="M100.985 53.3378C100.692 53.3378 100.443 53.282 100.239 53.1704C100.035 53.0589 99.8818 52.9068 99.7795 52.7141C99.6771 52.5214 99.626 52.3068 99.626 52.0702C99.626 51.7795 99.694 51.5412 99.8306 51.3553C99.9667 51.1693 100.142 51.0206 100.357 50.9091C100.572 50.7975 100.798 50.7029 101.036 50.6251C101.275 50.5474 101.5 50.473 101.711 50.402C101.922 50.3311 102.096 50.2482 102.232 50.1536C102.368 50.0589 102.437 49.9339 102.437 49.7784V49.0381C102.437 48.8218 102.404 48.6443 102.34 48.5057C102.275 48.3671 102.179 48.2624 102.053 48.1914C101.927 48.1204 101.769 48.0849 101.578 48.0849C101.436 48.0849 101.285 48.1052 101.129 48.1457C100.972 48.1863 100.843 48.264 100.74 48.379C100.917 48.4263 101.055 48.5142 101.154 48.6426C101.252 48.7711 101.302 48.9266 101.302 49.1091C101.302 49.3187 101.233 49.4826 101.093 49.6009C100.953 49.7192 100.777 49.7784 100.566 49.7784C100.342 49.7784 100.171 49.7074 100.055 49.5654C99.9397 49.4235 99.8818 49.2578 99.8818 49.0685C99.8818 48.8792 99.9296 48.7221 100.025 48.597C100.121 48.4719 100.253 48.3587 100.424 48.2573C100.594 48.1424 100.812 48.0511 101.077 47.9835C101.343 47.9159 101.633 47.8821 101.946 47.8821C102.246 47.8821 102.512 47.9142 102.743 47.9784C102.975 48.0426 103.173 48.1559 103.336 48.3181C103.499 48.4736 103.605 48.6663 103.653 48.8961C103.701 49.126 103.724 49.4066 103.724 49.7378V52.5164C103.724 52.6854 103.744 52.8054 103.785 52.8764C103.826 52.9473 103.891 52.9828 103.979 52.9828C104.047 52.9828 104.112 52.9659 104.173 52.9321C104.235 52.8983 104.303 52.851 104.378 52.7902L104.49 52.9626C104.34 53.0775 104.184 53.1688 104.02 53.2364C103.857 53.304 103.66 53.3378 103.428 53.3378C103.19 53.3378 103 53.304 102.861 53.2364C102.721 53.1688 102.619 53.0707 102.554 52.9423C102.49 52.8138 102.454 52.6617 102.447 52.4859C102.283 52.7564 102.082 52.9659 101.844 53.1147C101.605 53.2634 101.319 53.3378 100.985 53.3378ZM101.599 52.7699C101.762 52.7699 101.913 52.7259 102.053 52.6381C102.193 52.5502 102.32 52.4183 102.437 52.2426V50.1942C102.369 50.2956 102.272 50.3868 102.146 50.468C102.02 50.5491 101.885 50.6302 101.742 50.7113C101.599 50.7924 101.464 50.8854 101.338 50.9902C101.212 51.095 101.107 51.2234 101.021 51.3755C100.936 51.5277 100.894 51.722 100.894 51.9586C100.894 52.2223 100.958 52.4234 101.088 52.562C101.217 52.7006 101.387 52.7699 101.599 52.7699Z" fill="#3E1C1C"/>
<path d="M105.849 51.9281C106.006 51.9281 106.14 51.9602 106.253 52.0244C106.365 52.0887 106.459 52.1715 106.534 52.2729C106.609 52.3811 106.662 52.5061 106.692 52.6481C106.723 52.7901 106.739 52.9286 106.739 53.0639C106.739 53.3951 106.652 53.7027 106.478 53.9867C106.303 54.2706 106.036 54.4971 105.675 54.6661L105.583 54.4835C105.781 54.3957 105.953 54.2655 106.099 54.0931C106.246 53.9207 106.329 53.7399 106.35 53.5506C106.376 53.4289 106.376 53.314 106.35 53.2058C106.213 53.341 106.036 53.4086 105.818 53.4086C105.607 53.4086 105.43 53.3444 105.287 53.216C105.144 53.0875 105.072 52.905 105.072 52.6684C105.072 52.452 105.145 52.2746 105.292 52.136C105.439 51.9974 105.625 51.9281 105.849 51.9281Z" fill="#3E1C1C"/>
<path d="M66.9001 58.4734C67.152 58.4734 67.3858 58.5021 67.6 58.5596C67.8148 58.617 68.0003 58.6965 68.1571 58.7979C68.3207 58.8993 68.45 59.0261 68.5456 59.1782C68.6412 59.3303 68.6889 59.4976 68.6889 59.6801C68.6889 59.9032 68.6209 60.0824 68.4843 60.2176C68.3477 60.3528 68.1779 60.4204 67.9733 60.4204C67.7619 60.4204 67.5899 60.3596 67.4572 60.2379C67.3246 60.1162 67.2582 59.9539 67.2582 59.7511C67.2582 59.5551 67.3161 59.3928 67.4319 59.2644C67.5477 59.1359 67.6872 59.0514 67.8508 59.0108C67.7895 58.923 67.6939 58.8503 67.5646 58.7928C67.4353 58.7354 67.292 58.7066 67.1351 58.7066C66.9305 58.7066 66.7467 58.759 66.5831 58.8638C66.4195 58.9686 66.2778 59.1241 66.1592 59.3303C66.04 59.5365 65.9478 59.79 65.8832 60.0908C65.8185 60.3917 65.7859 60.7381 65.7859 61.1302C65.7859 61.6778 65.8523 62.1105 65.9849 62.4283C66.1176 62.746 66.2896 62.9708 66.501 63.1026C66.7118 63.2344 66.9367 63.3003 67.1756 63.3003C67.3189 63.3003 67.4719 63.2733 67.6354 63.2192C67.799 63.1651 67.9609 63.0739 68.1212 62.9454C68.2814 62.817 68.4258 62.6344 68.5557 62.3978L68.7502 62.4688C68.6749 62.7054 68.554 62.942 68.3876 63.1787C68.2207 63.4153 68.0042 63.6113 67.7389 63.7668C67.473 63.9223 67.1497 64.0001 66.768 64.0001C66.3318 64.0001 65.9366 63.9003 65.5824 63.7009C65.2283 63.5015 64.9472 63.1989 64.7392 62.7933C64.5312 62.3877 64.4277 61.884 64.4277 61.2824C64.4277 60.6874 64.5334 60.1821 64.7448 59.7663C64.9556 59.3506 65.2507 59.0311 65.6291 58.808C66.0074 58.5849 66.4302 58.4734 66.9001 58.4734Z" fill="#3E1C1C"/>
<path d="M74.2597 58.5038V62.7629C74.2597 63.0671 74.3108 63.2919 74.4131 63.4372C74.5155 63.5826 74.6959 63.6552 74.9545 63.6552V63.8682C74.7431 63.8479 74.5318 63.8378 74.321 63.8378C74.0685 63.8378 73.8285 63.8479 73.6003 63.8682C73.372 63.8885 73.1623 63.9257 72.9718 63.9797V62.9657C72.8014 63.3375 72.5681 63.6028 72.2719 63.7617C71.9756 63.9206 71.6569 64 71.3162 64C71.0503 64 70.8271 63.9645 70.6466 63.8935C70.4662 63.8226 70.3212 63.7262 70.2121 63.6045C70.0963 63.4761 70.0142 63.3071 69.967 63.0975C69.9192 62.8879 69.8956 62.6175 69.8956 62.2863V59.7207C69.8956 59.4164 69.8461 59.1917 69.7472 59.0463C69.6482 58.901 69.4661 58.8283 69.2002 58.8283V58.6153C69.4183 58.6356 69.6297 58.6458 69.8338 58.6458C70.0856 58.6458 70.3256 58.6339 70.5544 58.6103C70.7827 58.5866 70.9924 58.5511 71.183 58.5038V62.6412C71.183 62.8237 71.1981 62.986 71.229 63.1279C71.2594 63.2699 71.3224 63.3831 71.4179 63.4676C71.5135 63.5521 71.6563 63.5944 71.8474 63.5944C72.0582 63.5944 72.2494 63.5336 72.4197 63.4119C72.59 63.2902 72.7244 63.1245 72.8233 62.915C72.9223 62.7054 72.9718 62.4688 72.9718 62.2051V59.7207C72.9718 59.4164 72.9223 59.1917 72.8233 59.0463C72.7244 58.901 72.5423 58.8283 72.2764 58.8283V58.6153C72.4945 58.6356 72.7059 58.6458 72.9099 58.6458C73.1618 58.6458 73.4018 58.6339 73.6306 58.6103C73.8594 58.5866 74.0691 58.5511 74.2597 58.5038Z" fill="#3E1C1C"/>
<path d="M77.346 55.918V62.915C77.346 63.199 77.3989 63.3916 77.5046 63.493C77.6103 63.5945 77.789 63.6452 78.0409 63.6452V63.8581C77.9183 63.8513 77.7322 63.8429 77.4838 63.8328C77.2347 63.8226 76.9812 63.8175 76.7226 63.8175C76.4702 63.8175 76.2133 63.8226 75.9507 63.8328C75.6882 63.8429 75.4926 63.8513 75.3633 63.8581V63.6452C75.6151 63.6452 75.7939 63.5945 75.8996 63.493C76.0053 63.3916 76.0581 63.199 76.0581 62.915V57.1348C76.0581 56.8306 76.0103 56.6058 75.9153 56.4605C75.8198 56.3151 75.6359 56.2425 75.3633 56.2425V56.0295C75.5814 56.0498 75.7928 56.0599 75.9968 56.0599C76.256 56.0599 76.4977 56.0481 76.7226 56.0244C76.9475 56.0008 77.1555 55.9653 77.346 55.918Z" fill="#3E1C1C"/>
<path d="M80.4529 56.9523V58.6255H81.761V58.8283H80.4529V62.8643C80.4529 63.1077 80.4973 63.28 80.5855 63.3815C80.6738 63.4829 80.8003 63.5336 80.9639 63.5336C81.1207 63.5336 81.2635 63.4744 81.3934 63.3561C81.5227 63.2378 81.6385 63.0401 81.7408 62.7629L81.9246 62.844C81.8223 63.1753 81.6638 63.4507 81.4496 63.6705C81.2348 63.8902 80.9335 64 80.5451 64C80.3134 64 80.1173 63.9713 79.9576 63.9138C79.7974 63.8564 79.6597 63.7736 79.5438 63.6654C79.3937 63.5099 79.2937 63.324 79.2425 63.1077C79.1914 62.8913 79.1661 62.604 79.1661 62.2457V58.8283H78.2666V58.6255H79.1661V57.2159C79.4112 57.2092 79.6394 57.1855 79.8508 57.1449C80.061 57.1044 80.2623 57.0402 80.4529 56.9523Z" fill="#3E1C1C"/>
<path d="M84.1019 58.5039V62.9151C84.1019 63.199 84.1547 63.3917 84.2604 63.4931C84.3661 63.5945 84.5449 63.6452 84.7967 63.6452V63.8581C84.6742 63.8514 84.4864 63.8429 84.2346 63.8328C83.9822 63.8226 83.7269 63.8176 83.4683 63.8176C83.2159 63.8176 82.9607 63.8226 82.7021 63.8328C82.4429 63.8429 82.249 63.8514 82.1197 63.8581V63.6452C82.3716 63.6452 82.5503 63.5945 82.656 63.4931C82.7617 63.3917 82.8145 63.199 82.8145 62.9151V59.7309C82.8145 59.4199 82.7651 59.1917 82.6661 59.0464C82.5672 58.901 82.385 58.8284 82.1191 58.8284V58.6154C82.3373 58.6357 82.5486 58.6458 82.7527 58.6458C83.0046 58.6458 83.2446 58.634 83.4734 58.6103C83.7016 58.5867 83.9113 58.5512 84.1019 58.5039ZM83.3868 56.0295C83.6319 56.0295 83.8332 56.0971 83.99 56.2324C84.1469 56.3676 84.225 56.5467 84.225 56.7698C84.225 56.9929 84.1469 57.1721 83.99 57.3073C83.8332 57.4425 83.6325 57.5101 83.3868 57.5101C83.1417 57.5101 82.9405 57.4425 82.7836 57.3073C82.6268 57.1721 82.5486 56.9929 82.5486 56.7698C82.5486 56.5467 82.6268 56.3676 82.7836 56.2324C82.9405 56.0971 83.1417 56.0295 83.3868 56.0295Z" fill="#3E1C1C"/>
<path d="M90.0907 58.6154V58.8283C89.9614 58.8554 89.8405 58.9263 89.7281 59.0413C89.6156 59.1562 89.5082 59.359 89.4059 59.6497L87.842 63.8885C87.7599 63.8817 87.6784 63.8784 87.5969 63.8784C87.5148 63.8784 87.4299 63.8817 87.3417 63.8885L85.5023 59.3962C85.4 59.1393 85.2943 58.9804 85.1852 58.9196C85.0761 58.8587 84.9839 58.8283 84.9092 58.8283V58.6154C85.0998 58.6289 85.2976 58.6407 85.5017 58.6508C85.7063 58.661 85.9312 58.6661 86.1763 58.6661C86.3877 58.6661 86.6109 58.661 86.8458 58.6508C87.0808 58.6407 87.3006 58.6289 87.5053 58.6154V58.8283C87.3552 58.8283 87.2208 58.8384 87.1016 58.8587C86.9824 58.879 86.9026 58.9314 86.8616 59.0159C86.8205 59.1004 86.8374 59.2475 86.9127 59.457L88.1394 62.6108L88.0472 62.7223L88.977 60.2176C89.0928 59.8998 89.1406 59.6429 89.1198 59.4469C89.099 59.2508 89.0259 59.1021 88.9 59.0007C88.7741 58.8993 88.5947 58.8418 88.3637 58.8283V58.6154C88.4795 58.6221 88.5902 58.6289 88.6959 58.6356C88.8016 58.6424 88.9073 58.6475 89.013 58.6508C89.1187 58.6542 89.2193 58.6559 89.3143 58.6559C89.4571 58.6559 89.5988 58.6525 89.7382 58.6458C89.8776 58.639 89.9951 58.6289 90.0907 58.6154Z" fill="#3E1C1C"/>
<path d="M91.6855 63.9291C91.3926 63.9291 91.1436 63.8733 90.9395 63.7617C90.7349 63.6502 90.582 63.4981 90.4796 63.3054C90.3773 63.1127 90.3262 62.8981 90.3262 62.6615C90.3262 62.3708 90.3942 62.1325 90.5308 61.9466C90.6668 61.7607 90.8422 61.6119 91.057 61.5004C91.2717 61.3888 91.4983 61.2942 91.7366 61.2164C91.975 61.1387 92.1999 61.0643 92.4112 60.9933C92.6221 60.9224 92.7963 60.8395 92.9324 60.7449C93.0684 60.6503 93.137 60.5252 93.137 60.3697V59.6294C93.137 59.4131 93.1044 59.2356 93.0397 59.097C92.9751 58.9585 92.8795 58.8537 92.7536 58.7827C92.6277 58.7117 92.4691 58.6762 92.2786 58.6762C92.1358 58.6762 91.9857 58.6965 91.8288 58.737C91.672 58.7776 91.5427 58.8554 91.4404 58.9703C91.6175 59.0176 91.7552 59.1055 91.8541 59.2339C91.9525 59.3624 92.0026 59.5179 92.0026 59.7004C92.0026 59.91 91.9328 60.0739 91.7929 60.1922C91.6529 60.3105 91.4775 60.3697 91.2667 60.3697C91.0418 60.3697 90.8715 60.2987 90.7557 60.1567C90.6399 60.0148 90.582 59.8491 90.582 59.6599C90.582 59.4706 90.6297 59.3134 90.7253 59.1883C90.8209 59.0632 90.9536 58.95 91.1239 58.8486C91.2942 58.7337 91.5123 58.6424 91.7777 58.5748C92.0436 58.5072 92.3331 58.4734 92.6462 58.4734C92.9459 58.4734 93.2118 58.5055 93.4434 58.5697C93.675 58.6339 93.8729 58.7472 94.0359 58.9094C94.1995 59.0649 94.3052 59.2576 94.353 59.4875C94.4007 59.7173 94.4244 59.9979 94.4244 60.3291V63.1077C94.4244 63.2767 94.4446 63.3967 94.4856 63.4677C94.5267 63.5387 94.5913 63.5741 94.6796 63.5741C94.7476 63.5741 94.8123 63.5572 94.8735 63.5234C94.9348 63.4896 95.0028 63.4423 95.0782 63.3815L95.1906 63.5539C95.0405 63.6688 94.8842 63.7601 94.7206 63.8277C94.557 63.8953 94.3597 63.9291 94.1281 63.9291C93.8897 63.9291 93.7003 63.8953 93.5609 63.8277C93.4209 63.7601 93.3191 63.662 93.2545 63.5336C93.1898 63.4051 93.1539 63.253 93.1471 63.0773C92.9835 63.3477 92.7823 63.5572 92.5439 63.706C92.3056 63.8547 92.0194 63.9291 91.6855 63.9291ZM92.2988 63.3612C92.4624 63.3612 92.6136 63.3172 92.7536 63.2294C92.893 63.1415 93.0206 63.0096 93.137 62.8339V60.7855C93.069 60.8869 92.9717 60.9781 92.8458 61.0593C92.7199 61.1404 92.585 61.2215 92.4422 61.3026C92.2994 61.3838 92.1644 61.4767 92.0385 61.5815C91.9126 61.6863 91.8069 61.8147 91.7215 61.9668C91.636 62.119 91.5939 62.3133 91.5939 62.5499C91.5939 62.8136 91.6585 63.0147 91.7884 63.1533C91.9171 63.2919 92.0874 63.3612 92.2988 63.3612Z" fill="#3E1C1C"/>
<path d="M99.1561 58.4734C99.4423 58.4734 99.6722 58.5106 99.8459 58.5849C100.02 58.6593 100.161 58.7539 100.27 58.8689C100.392 58.9973 100.479 59.163 100.531 59.3658C100.582 59.5686 100.607 59.8424 100.607 60.1872V62.915C100.607 63.1989 100.66 63.3916 100.766 63.493C100.871 63.5944 101.05 63.6451 101.302 63.6451V63.8581C101.179 63.8513 100.99 63.8429 100.735 63.8327C100.479 63.8226 100.232 63.8175 99.9938 63.8175C99.7413 63.8175 99.4963 63.8226 99.2579 63.8327C99.0195 63.8429 98.8424 63.8513 98.7266 63.8581V63.6451C98.9448 63.6451 99.0977 63.5944 99.1865 63.493C99.2748 63.3916 99.3192 63.1989 99.3192 62.915V59.8424C99.3192 59.6598 99.3023 59.4959 99.268 59.3506C99.2337 59.2052 99.1657 59.0903 99.0634 59.0058C98.9611 58.9213 98.8143 58.879 98.6238 58.879C98.3989 58.879 98.1999 58.9399 98.0262 59.0616C97.8525 59.1832 97.7159 59.3506 97.6175 59.5635C97.5185 59.7765 97.4691 60.0148 97.4691 60.2784V62.915C97.4691 63.1989 97.5135 63.3916 97.6017 63.493C97.69 63.5944 97.8435 63.6451 98.0616 63.6451V63.8581C97.9458 63.8513 97.7721 63.8429 97.5405 63.8327C97.3089 63.8226 97.0739 63.8175 96.8355 63.8175C96.5831 63.8175 96.3279 63.8226 96.0693 63.8327C95.8101 63.8429 95.6162 63.8513 95.4869 63.8581V63.6451C95.7387 63.6451 95.9175 63.5944 96.0232 63.493C96.1289 63.3916 96.1817 63.1989 96.1817 62.915V59.7207C96.1817 59.4165 96.1323 59.1917 96.0333 59.0463C95.9344 58.901 95.7522 58.8283 95.4863 58.8283V58.6154C95.7044 58.6356 95.9158 58.6458 96.1199 58.6458C96.3717 58.6458 96.6118 58.634 96.8406 58.6103C97.0688 58.5866 97.2785 58.5511 97.4691 58.5038V59.5179C97.6394 59.1325 97.8744 58.8621 98.174 58.7066C98.4742 58.5511 98.8014 58.4734 99.1561 58.4734Z" fill="#3E1C1C"/>
<path d="M104.154 58.4734C104.454 58.4734 104.723 58.5309 104.962 58.6458C105.2 58.7607 105.377 58.9534 105.493 59.2238L105.37 59.3252C105.275 59.1292 105.146 58.9838 104.982 58.8892C104.818 58.7945 104.635 58.7472 104.43 58.7472C104.062 58.7472 103.767 58.9517 103.546 59.3607C103.324 59.7697 103.213 60.3968 103.213 61.2418C103.213 61.8097 103.258 62.2677 103.346 62.6159C103.434 62.964 103.563 63.2159 103.729 63.3714C103.896 63.5269 104.095 63.6046 104.327 63.6046C104.572 63.6046 104.794 63.5049 104.992 63.3054C105.189 63.106 105.305 62.8204 105.339 62.4486L105.41 62.7325C105.322 63.1449 105.155 63.4592 104.909 63.6756C104.664 63.8919 104.341 64.0001 103.939 64.0001C103.53 64.0001 103.167 63.9004 102.85 63.7009C102.533 63.5015 102.288 63.1973 102.114 62.7883C101.941 62.3793 101.854 61.8604 101.854 61.2317C101.854 60.6165 101.956 60.1044 102.16 59.6954C102.365 59.2864 102.64 58.9805 102.988 58.7776C103.337 58.5748 103.725 58.4734 104.154 58.4734ZM106.597 55.918V62.7528C106.597 63.057 106.648 63.2818 106.751 63.4271C106.853 63.5725 107.033 63.6452 107.292 63.6452V63.8581C107.081 63.8378 106.87 63.8277 106.659 63.8277C106.406 63.8277 106.168 63.8378 105.943 63.8581C105.718 63.8784 105.507 63.9156 105.31 63.9697V57.1348C105.31 56.8306 105.26 56.6058 105.161 56.4605C105.062 56.3151 104.88 56.2425 104.614 56.2425V56.0295C104.832 56.0498 105.044 56.0599 105.248 56.0599C105.506 56.0599 105.749 56.0481 105.974 56.0244C106.198 56.0008 106.406 55.9653 106.597 55.918Z" fill="#3E1C1C"/>
<path d="M110.347 58.4734C110.817 58.4734 111.235 58.5663 111.599 58.7523C111.963 58.9382 112.253 59.2339 112.467 59.6396C112.682 60.0452 112.79 60.5793 112.79 61.2418C112.79 61.9043 112.682 62.4384 112.467 62.844C112.253 63.2496 111.963 63.5437 111.599 63.7263C111.234 63.9088 110.817 64.0001 110.347 64.0001C109.877 64.0001 109.458 63.9088 109.09 63.7263C108.722 63.5437 108.432 63.2496 108.221 62.844C108.01 62.4384 107.904 61.9043 107.904 61.2418C107.904 60.5793 108.01 60.0452 108.221 59.6396C108.432 59.2339 108.722 58.9382 109.09 58.7523C109.458 58.5663 109.876 58.4734 110.347 58.4734ZM110.347 58.6762C110.026 58.6762 109.766 58.8773 109.565 59.2796C109.364 59.6818 109.264 60.3359 109.264 61.2418C109.264 62.1477 109.364 62.8001 109.565 63.1989C109.766 63.5978 110.026 63.7972 110.347 63.7972C110.66 63.7972 110.919 63.5978 111.124 63.1989C111.328 62.8001 111.43 62.1477 111.43 61.2418C111.43 60.3359 111.328 59.6818 111.124 59.2796C110.919 58.8773 110.66 58.6762 110.347 58.6762Z" fill="#3E1C1C"/>
<path d="M118.503 58.4734C118.973 58.4734 119.391 58.5663 119.755 58.7523C120.119 58.9382 120.409 59.2339 120.624 59.6396C120.838 60.0452 120.946 60.5793 120.946 61.2418C120.946 61.9043 120.838 62.4384 120.624 62.844C120.409 63.2496 120.119 63.5437 119.755 63.7263C119.39 63.9088 118.973 64.0001 118.503 64.0001C118.033 64.0001 117.614 63.9088 117.246 63.7263C116.879 63.5437 116.588 63.2496 116.378 62.844C116.166 62.4384 116.061 61.9043 116.061 61.2418C116.061 60.5793 116.166 60.0452 116.378 59.6396C116.588 59.2339 116.879 58.9382 117.246 58.7523C117.614 58.5663 118.033 58.4734 118.503 58.4734ZM118.503 58.6762C118.183 58.6762 117.922 58.8773 117.721 59.2796C117.52 59.6818 117.42 60.3359 117.42 61.2418C117.42 62.1477 117.52 62.8001 117.721 63.1989C117.922 63.5978 118.183 63.7972 118.503 63.7972C118.816 63.7972 119.075 63.5978 119.28 63.1989C119.485 62.8001 119.586 62.1477 119.586 61.2418C119.586 60.3359 119.484 59.6818 119.28 59.2796C119.075 58.8773 118.817 58.6762 118.503 58.6762Z" fill="#3E1C1C"/>
<path d="M126.699 55.9281C126.924 55.9281 127.12 55.9568 127.287 56.0143C127.454 56.0718 127.598 56.1478 127.721 56.2425C127.824 56.3236 127.907 56.425 127.972 56.5467C128.036 56.6684 128.069 56.8036 128.069 56.9523C128.069 57.1348 128.006 57.2903 127.88 57.4188C127.754 57.5472 127.596 57.6115 127.405 57.6115C127.2 57.6115 127.032 57.5523 126.899 57.434C126.766 57.3157 126.699 57.1517 126.699 56.9422C126.699 56.7799 126.746 56.6396 126.838 56.5213C126.93 56.403 127.061 56.3202 127.231 56.2729C127.211 56.2256 127.167 56.185 127.099 56.1512C127.031 56.1174 126.938 56.1005 126.823 56.1005C126.686 56.1005 126.568 56.1275 126.47 56.1816C126.371 56.2357 126.291 56.3101 126.23 56.4047C126.162 56.5196 126.114 56.6886 126.087 56.9117C126.06 57.1348 126.046 57.4729 126.046 57.9258V58.6255H127.14V58.8283H126.046V62.8136C126.046 63.1449 126.136 63.3663 126.317 63.4778C126.498 63.5894 126.741 63.6451 127.048 63.6451V63.8581C126.878 63.8513 126.639 63.8429 126.332 63.8327C126.026 63.8226 125.699 63.8175 125.351 63.8175C125.106 63.8175 124.861 63.8226 124.616 63.8327C124.37 63.8429 124.186 63.8513 124.063 63.8581V63.6451C124.315 63.6451 124.494 63.5944 124.6 63.493C124.705 63.3916 124.758 63.199 124.758 62.915V58.8283H124.022V58.6255H124.758C124.758 58.2267 124.779 57.8937 124.82 57.6267C124.861 57.3596 124.924 57.1315 125.008 56.9422C125.093 56.7529 125.211 56.5839 125.361 56.4351C125.504 56.2864 125.693 56.1647 125.928 56.0701C126.163 55.9754 126.42 55.9281 126.699 55.9281Z" fill="#3E1C1C"/>
<path d="M132.524 58.5038V62.7629C132.524 63.0671 132.575 63.2919 132.678 63.4372C132.78 63.5826 132.961 63.6552 133.219 63.6552V63.8682C133.008 63.8479 132.796 63.8378 132.586 63.8378C132.333 63.8378 132.093 63.8479 131.865 63.8682C131.637 63.8885 131.427 63.9257 131.236 63.9797V62.9657C131.066 63.3375 130.833 63.6028 130.537 63.7617C130.24 63.9206 129.921 64 129.581 64C129.315 64 129.092 63.9645 128.911 63.8935C128.731 63.8226 128.586 63.7262 128.477 63.6045C128.361 63.4761 128.279 63.3071 128.232 63.0975C128.184 62.8879 128.16 62.6175 128.16 62.2863V59.7207C128.16 59.4164 128.111 59.1917 128.012 59.0463C127.913 58.901 127.731 58.8283 127.465 58.8283V58.6153C127.683 58.6356 127.894 58.6458 128.098 58.6458C128.35 58.6458 128.59 58.6339 128.819 58.6103C129.047 58.5866 129.257 58.5511 129.448 58.5038V62.6412C129.448 62.8237 129.463 62.986 129.494 63.1279C129.524 63.2699 129.587 63.3831 129.683 63.4676C129.778 63.5521 129.921 63.5944 130.112 63.5944C130.323 63.5944 130.514 63.5336 130.684 63.4119C130.855 63.2902 130.989 63.1245 131.088 62.915C131.187 62.7054 131.236 62.4688 131.236 62.2051V59.7207C131.236 59.4164 131.187 59.1917 131.088 59.0463C130.989 58.901 130.807 58.8283 130.541 58.8283V58.6153C130.759 58.6356 130.971 58.6458 131.175 58.6458C131.426 58.6458 131.666 58.6339 131.895 58.6103C132.124 58.5866 132.334 58.5511 132.524 58.5038Z" fill="#3E1C1C"/>
<path d="M135.622 56.9523V58.6255H136.93V58.8283H135.622V62.8643C135.622 63.1077 135.666 63.28 135.754 63.3815C135.843 63.4829 135.969 63.5336 136.133 63.5336C136.29 63.5336 136.432 63.4744 136.562 63.3561C136.692 63.2378 136.807 63.0401 136.91 62.7629L137.094 62.844C136.991 63.1753 136.833 63.4507 136.619 63.6705C136.404 63.8902 136.102 64 135.714 64C135.482 64 135.286 63.9713 135.127 63.9138C134.966 63.8564 134.829 63.7736 134.713 63.6654C134.563 63.5099 134.463 63.324 134.411 63.1077C134.36 62.8913 134.335 62.604 134.335 62.2457V58.8283H133.436V58.6255H134.335V57.2159C134.58 57.2092 134.808 57.1855 135.02 57.1449C135.23 57.1044 135.431 57.0402 135.622 56.9523Z" fill="#3E1C1C"/>
<path d="M142.224 58.5038V62.7629C142.224 63.0671 142.275 63.2919 142.377 63.4372C142.479 63.5826 142.66 63.6552 142.918 63.6552V63.8682C142.707 63.8479 142.496 63.8378 142.285 63.8378C142.032 63.8378 141.792 63.8479 141.564 63.8682C141.336 63.8885 141.126 63.9257 140.936 63.9797V62.9657C140.765 63.3375 140.532 63.6028 140.236 63.7617C139.939 63.9206 139.621 64 139.28 64C139.014 64 138.791 63.9645 138.611 63.8935C138.43 63.8226 138.285 63.7262 138.176 63.6045C138.06 63.4761 137.978 63.3071 137.931 63.0975C137.883 62.8879 137.859 62.6175 137.859 62.2863V59.7207C137.859 59.4164 137.81 59.1917 137.711 59.0463C137.612 58.901 137.43 58.8283 137.164 58.8283V58.6153C137.382 58.6356 137.594 58.6458 137.798 58.6458C138.049 58.6458 138.29 58.6339 138.518 58.6103C138.747 58.5866 138.956 58.5511 139.147 58.5038V62.6412C139.147 62.8237 139.162 62.986 139.193 63.1279C139.223 63.2699 139.286 63.3831 139.382 63.4676C139.477 63.5521 139.62 63.5944 139.811 63.5944C140.022 63.5944 140.213 63.5336 140.384 63.4119C140.554 63.2902 140.688 63.1245 140.787 62.915C140.886 62.7054 140.936 62.4688 140.936 62.2051V59.7207C140.936 59.4164 140.886 59.1917 140.787 59.0463C140.688 58.901 140.506 58.8283 140.24 58.8283V58.6153C140.458 58.6356 140.67 58.6458 140.874 58.6458C141.126 58.6458 141.366 58.6339 141.594 58.6103C141.823 58.5866 142.033 58.5511 142.224 58.5038Z" fill="#3E1C1C"/>
<path d="M146.782 58.4734C146.993 58.4734 147.169 58.5173 147.308 58.6052C147.448 58.6931 147.552 58.8047 147.62 58.9399C147.688 59.0751 147.722 59.217 147.722 59.3658C147.722 59.5889 147.655 59.7748 147.523 59.9235C147.39 60.0722 147.214 60.1466 146.997 60.1466C146.792 60.1466 146.625 60.0925 146.496 59.9844C146.366 59.8762 146.302 59.7275 146.302 59.5382C146.302 59.3691 146.344 59.2272 146.429 59.1122C146.514 58.9973 146.612 58.9061 146.721 58.8385C146.646 58.7979 146.56 58.7844 146.465 58.7979C146.302 58.8114 146.152 58.8689 146.016 58.9703C145.879 59.0717 145.763 59.1968 145.668 59.3455C145.573 59.4942 145.5 59.6531 145.448 59.8221C145.397 59.9911 145.372 60.1534 145.372 60.3088V62.8136C145.372 63.1449 145.457 63.3663 145.627 63.4778C145.798 63.5894 146.046 63.6451 146.373 63.6451V63.8581C146.216 63.8513 145.99 63.8429 145.694 63.8327C145.397 63.8226 145.089 63.8175 144.769 63.8175C144.503 63.8175 144.239 63.8226 143.977 63.8327C143.714 63.8429 143.519 63.8513 143.389 63.8581V63.6451C143.641 63.6451 143.82 63.5944 143.926 63.493C144.031 63.3916 144.084 63.1989 144.084 62.915V59.7207C144.084 59.4165 144.035 59.1917 143.936 59.0463C143.837 58.901 143.655 58.8283 143.389 58.8283V58.6154C143.607 58.6356 143.818 58.6458 144.022 58.6458C144.274 58.6458 144.514 58.634 144.743 58.6103C144.971 58.5866 145.181 58.5511 145.371 58.5038V59.5584C145.453 59.3691 145.56 59.1934 145.694 59.0311C145.826 58.8689 145.986 58.7354 146.174 58.6306C146.361 58.5258 146.564 58.4734 146.782 58.4734Z" fill="#3E1C1C"/>
<path d="M150.512 58.4734C150.982 58.4734 151.4 58.5663 151.764 58.7523C152.128 58.9382 152.418 59.2339 152.632 59.6396C152.847 60.0452 152.955 60.5793 152.955 61.2418C152.955 61.9043 152.847 62.4384 152.632 62.844C152.418 63.2496 152.128 63.5437 151.764 63.7263C151.399 63.9088 150.982 64.0001 150.512 64.0001C150.042 64.0001 149.623 63.9088 149.255 63.7263C148.887 63.5437 148.597 63.2496 148.386 62.844C148.175 62.4384 148.069 61.9043 148.069 61.2418C148.069 60.5793 148.175 60.0452 148.386 59.6396C148.597 59.2339 148.887 58.9382 149.255 58.7523C149.623 58.5663 150.042 58.4734 150.512 58.4734ZM150.512 58.6762C150.192 58.6762 149.931 58.8773 149.73 59.2796C149.529 59.6818 149.429 60.3359 149.429 61.2418C149.429 62.1477 149.529 62.8001 149.73 63.1989C149.931 63.5978 150.192 63.7972 150.512 63.7972C150.825 63.7972 151.084 63.5978 151.289 63.1989C151.493 62.8001 151.595 62.1477 151.595 61.2418C151.595 60.3359 151.493 59.6818 151.289 59.2796C151.084 58.8773 150.825 58.6762 150.512 58.6762Z" fill="#3E1C1C"/>
<path d="M154.713 62.5195C154.945 62.5195 155.135 62.5871 155.285 62.7223C155.435 62.8576 155.51 63.0367 155.51 63.2598C155.51 63.4829 155.436 63.662 155.285 63.7973C155.135 63.9325 154.945 64.0001 154.713 64.0001C154.475 64.0001 154.282 63.9325 154.136 63.7973C153.989 63.662 153.916 63.4829 153.916 63.2598C153.916 63.0367 153.989 62.8576 154.136 62.7223C154.282 62.5871 154.475 62.5195 154.713 62.5195Z" fill="#3E1C1C"/>
<path d="M112.677 26.1145C112.677 26.1145 113.175 21.8284 118.302 21.8284C122.974 21.8284 123.293 26.1145 123.293 26.1145H112.677ZM127.694 27.866C127.694 20.7039 123.463 17.6667 118.188 17.6667C111.819 17.6667 108.037 22.5027 108.037 28.0722C108.037 35.6788 113.648 38.6985 118.903 38.6985C124.19 38.6985 127.341 35.6895 127.341 35.6895L125.472 32.5994C125.472 32.5994 122.982 34.765 118.882 34.7262C114.91 34.6879 112.677 31.631 112.526 29.617H127.584C127.583 29.6164 127.694 29.266 127.694 27.866Z" fill="#D10007"/>
<path d="M78.4325 26.1145C78.4325 26.1145 78.9312 21.8284 84.0575 21.8284C88.7297 21.8284 89.049 26.1145 89.049 26.1145H78.4325ZM93.4502 27.866C93.4502 20.7039 89.2188 17.6667 83.9434 17.6667C77.5752 17.6667 73.793 22.5027 73.793 28.0722C73.793 35.6788 79.4039 38.6985 84.6591 38.6985C89.9468 38.6985 93.0966 35.6895 93.0966 35.6895L91.2274 32.5994C91.2274 32.5994 88.7376 34.765 84.6377 34.7262C80.6654 34.6879 78.4325 31.631 78.2819 29.617H93.3394C93.3389 29.6164 93.4502 29.266 93.4502 27.866Z" fill="#D10007"/>
<path d="M96.1641 38.476H100.712V26.8559C100.712 23.7377 102.752 21.7873 105.459 21.7873C106.245 21.7873 107.402 22.0543 107.402 22.0543L108.69 18.1248C108.69 18.1248 107.315 17.7389 106.186 17.7389C105.056 17.7389 102.288 18.0487 100.647 20.5343C100.647 20.5343 99.9941 17.8944 97.4345 17.8944H96.1652V38.476H96.1641Z" fill="#D10007"/>
<path d="M164.817 23.1596L166.532 20.1005C166.532 20.1005 163.77 17.6707 159.58 17.6707C155.389 17.6707 152.21 19.8678 152.21 23.657C152.21 30.271 162.881 29.0496 162.881 32.7183C162.881 34.2337 160.963 34.8563 159.124 34.7335C156.218 34.5391 153.709 32.8777 153.709 32.8777L151.69 36.1667C151.69 36.1667 155.006 38.4754 159.111 38.7092C163.447 38.9554 167.32 36.5154 167.32 32.8586C167.32 28.7026 162.815 27.3178 161.099 26.6637C159.383 26.0097 156.514 25.2136 156.514 23.4627C156.514 21.7123 158.862 21.5112 159.743 21.5112C160.625 21.5117 162.313 21.599 164.817 23.1596Z" fill="#D10007"/>
<path d="M78.0863 10.9772V9.9812H55.7734V14.1975H64.5427V38.4759H69.3244V14.198H74.8758C76.6489 14.198 78.0863 12.7564 78.0863 10.9772Z" fill="#D10007"/>
<path d="M140.268 34.5481C136.384 34.5481 134.359 31.4231 134.359 28.1882C134.359 24.9522 136.384 21.8278 140.268 21.8278C144.152 21.8278 146.178 24.9528 146.178 28.1882C146.178 31.4231 144.153 34.5481 140.268 34.5481ZM140.268 17.6707C135.861 17.6707 129.639 20.4261 129.639 28.1882C129.639 35.9492 135.861 38.7052 140.268 38.7052C144.675 38.7052 150.897 35.9498 150.897 28.1882C150.897 20.4267 144.675 17.6707 140.268 17.6707Z" fill="#D10007"/>
</svg>
