<svg width="24" height="24" viewBox="0 0 24 24" fill="none" xmlns="http://www.w3.org/2000/svg">
<g clip-path="url(#clip0_4018_316)">
<g clip-path="url(#clip1_4018_316)">
<path d="M12.8638 5.06339C13.0329 4.89507 13.2618 4.80057 13.5004 4.80057C13.739 4.80057 13.9679 4.89507 14.137 5.06339L18.9004 9.82739C19.1866 10.112 19.4135 10.4506 19.568 10.8235C19.7225 11.1965 19.8015 11.5963 19.8004 12C19.8016 12.4038 19.7226 12.8039 19.5681 13.177C19.4136 13.5502 19.1867 13.889 18.9004 14.1738L14.137 18.9372C14.0535 19.0208 13.9542 19.0871 13.845 19.1322C13.7357 19.1773 13.6186 19.2003 13.5004 19.2C13.2688 19.2 13.0384 19.1124 12.8638 18.9372C12.6953 18.7681 12.6007 18.539 12.6007 18.3003C12.6007 18.0615 12.6953 17.8325 12.8638 17.6634L17.6272 12.9H7.20039V18.3C7.20039 18.5387 7.10557 18.7676 6.93679 18.9364C6.768 19.1052 6.53909 19.2 6.30039 19.2C6.0617 19.2 5.83278 19.1052 5.66399 18.9364C5.49521 18.7676 5.40039 18.5387 5.40039 18.3V5.69999C5.40039 5.46129 5.49521 5.23237 5.66399 5.06359C5.83278 4.89481 6.0617 4.79999 6.30039 4.79999C6.53909 4.79999 6.768 4.89481 6.93679 5.06359C7.10557 5.23237 7.20039 5.46129 7.20039 5.69999V11.1H17.6272L12.8632 6.33719C12.6947 6.16805 12.6001 5.93903 12.6001 5.70029C12.6001 5.46154 12.6953 5.23252 12.8638 5.06339Z" fill="white"/>
</g>
</g>
<defs>
<clipPath id="clip0_4018_316">
<rect width="24" height="24" fill="white"/>
</clipPath>
<clipPath id="clip1_4018_316">
<rect width="24" height="24" fill="white"/>
</clipPath>
</defs>
</svg>
