<svg width="24" height="24" viewBox="0 0 24 24" fill="none" xmlns="http://www.w3.org/2000/svg">
<g clip-path="url(#clip0_4022_327)">
<g clip-path="url(#clip1_4022_327)">
<path d="M15.2655 5.60841H8.08046C7.82993 5.6146 7.59173 5.71844 7.41669 5.8978C7.24166 6.07715 7.14364 6.31781 7.14356 6.56842C7.14348 6.81903 7.24135 7.05975 7.41627 7.23921C7.5912 7.41867 7.82933 7.52267 8.07986 7.52901H15.2655L6.72266 16.0736C6.63139 16.1623 6.55867 16.2682 6.50871 16.3853C6.45876 16.5023 6.43257 16.6281 6.43166 16.7553C6.43076 16.8826 6.45517 17.0087 6.50346 17.1265C6.55175 17.2442 6.62297 17.3511 6.71297 17.4411C6.80297 17.5311 6.90995 17.6022 7.0277 17.6505C7.14546 17.6987 7.27162 17.7231 7.39887 17.7221C7.52611 17.7212 7.6519 17.6949 7.76891 17.6449C7.88592 17.5949 7.99182 17.5221 8.08046 17.4308L16.6233 8.88801V16.073C16.6233 16.6028 17.0529 17.0318 17.5833 17.0336C17.8485 17.0336 18.0873 16.9268 18.2625 16.7516C18.4377 16.5776 18.5445 16.3376 18.5445 16.0736V8.88681C18.5445 8.01081 18.2031 7.18761 17.5839 6.56841C17.2801 6.26304 16.9188 6.02095 16.5208 5.85616C16.1229 5.69138 15.6962 5.60717 15.2655 5.60841Z" fill="white"/>
</g>
</g>
<defs>
<clipPath id="clip0_4022_327">
<rect width="24" height="24" fill="white"/>
</clipPath>
<clipPath id="clip1_4022_327">
<rect width="24" height="24" fill="white"/>
</clipPath>
</defs>
</svg>
