<svg width="221" height="64" viewBox="0 0 221 64" fill="none" xmlns="http://www.w3.org/2000/svg">
<path d="M141.911 43.3216H132.974C132.791 43.3216 132.662 43.1429 132.721 42.9702L137.786 27.9762C137.823 27.8678 137.925 27.7948 138.04 27.7948H146.976C147.159 27.7948 147.288 27.9736 147.23 28.1463L142.164 43.1401C142.127 43.2485 142.025 43.3216 141.911 43.3216" fill="#D1AB63"/>
<path d="M148.638 24.1414H140.146C139.966 24.1414 139.838 23.9667 139.892 23.7949L141.817 17.6685C141.852 17.5574 141.955 17.4817 142.072 17.4817H150.563C150.743 17.4817 150.871 17.6565 150.818 17.8282L148.892 23.9548C148.857 24.0659 148.754 24.1414 148.638 24.1414Z" fill="#D1AB63"/>
<path d="M106.707 43.3216H97.7942C97.6119 43.3216 97.4833 43.1429 97.5415 42.9702L102.594 27.9762C102.63 27.8678 102.732 27.7948 102.846 27.7948H111.76C111.942 27.7948 112.07 27.9736 112.012 28.1463L106.96 43.1401C106.923 43.2485 106.822 43.3216 106.707 43.3216" fill="#D1AB63"/>
<path d="M113.031 24.1414H104.51C104.329 24.1414 104.201 23.9667 104.255 23.7949L106.187 17.6685C106.222 17.5574 106.325 17.4817 106.442 17.4817H114.963C115.144 17.4817 115.272 17.6565 115.218 17.8282L113.286 23.9548C113.251 24.0659 113.148 24.1414 113.031 24.1414Z" fill="#D1AB63"/>
<path d="M23.7701 3.2H27.4461C27.6397 3.2 27.7658 3.50462 27.6813 3.76464C27.0625 5.66857 26.5459 7.28048 26.1569 8.50096C24.9238 12.3703 24.9276 12.4519 23.2045 17.939C22.7883 19.2645 22.453 20.6496 21.9805 21.9322C21.9358 22.0535 21.6197 22.9091 21.3417 24.1111C21.1103 25.1116 21.0901 25.553 21.0858 25.7695C21.0789 26.1229 21.0697 26.9411 21.3984 27.7919C21.6808 28.5234 22.0656 28.8977 22.2668 29.0883C22.8461 29.6377 23.4191 29.7425 23.7256 29.7626H71.8025C71.9753 29.7626 72.1008 30.0075 72.0558 30.2564L71.5021 33.3108C71.471 33.4814 71.3673 33.6 71.2488 33.6H22.6964C22.3446 33.6 21.9953 33.5403 21.6544 33.411C21.5614 33.3757 21.4642 33.3353 21.3636 33.2889C20.3556 32.8235 19.689 32.0732 19.4881 31.8368C19.1482 31.4369 18.4447 30.5904 17.9944 29.1403C17.8945 28.8181 17.5032 27.4879 17.6472 24.9397C17.7963 22.2988 18.4064 20.3669 18.5502 19.9096C19.5674 16.6764 21.2699 10.9124 23.5303 3.43274C23.5727 3.29234 23.6669 3.2 23.7701 3.2Z" fill="#CFAC64"/>
<path d="M13.7323 3.20001L21.2408 3.26176C21.4765 3.26378 21.6345 3.62792 21.5414 3.95233C20.6275 7.13891 19.8281 9.68175 19.2558 11.4466C18.6844 13.209 17.8522 16.0695 16.1878 21.7907C16.1077 22.0661 15.9288 22.6884 15.7817 23.5484C15.5078 25.1518 15.5444 26.4129 15.5561 26.726C15.5769 27.2833 15.6188 28.2714 15.9171 29.4304C16.3527 31.1232 17.0659 32.1359 17.5412 32.8108C18.3242 33.9224 19.0765 34.52 19.5716 34.9066C19.7762 35.0664 19.973 35.2068 20.1591 35.3303C20.6931 35.6846 21.2729 35.8532 21.8569 35.8532H70.134C70.3613 35.8532 70.5204 36.19 70.4448 36.5114C70.0711 38.0978 69.6974 39.6841 69.3238 41.2705C69.2773 41.4679 69.1528 41.6 69.013 41.6H17.6862C17.5896 41.6 17.4955 41.5948 17.3994 41.5807C16.9209 41.5106 16.3012 41.3665 15.6012 41.0592C15.2494 40.9045 13.7828 40.2281 12.2175 38.4224C10.4848 36.4239 9.60271 34.1627 9.32992 33.4194C9.11343 32.8297 8.1512 30.1181 8.02149 26.2529C7.93037 23.5368 8.29312 21.5274 8.69825 19.3567C9.11004 17.1501 9.73031 15.1739 10.9541 11.3114C11.5676 9.37519 12.9429 5.03648 13.4386 3.4737C13.4926 3.30309 13.6064 3.199 13.7323 3.20001Z" fill="#CCCCCC"/>
<path d="M195.641 60.7164C195.435 60.7111 195.303 60.3849 195.393 60.1073C195.937 58.437 196.394 57.0017 196.752 55.8679C197.392 53.8386 197.702 52.8176 197.788 52.5425C198.205 51.2101 198.541 49.8178 199.014 48.5285C199.059 48.4066 199.375 47.5466 199.654 46.3382C199.886 45.3325 199.906 44.8889 199.91 44.6712C199.917 44.3158 199.926 43.4936 199.597 42.6382C199.314 41.9031 198.929 41.5268 198.727 41.3352C198.147 40.7827 197.573 40.6775 197.266 40.6574H149.479C149.121 40.6574 148.86 40.1473 148.954 39.6289C149.088 38.8867 149.222 38.1446 149.356 37.4025C149.42 37.0469 149.635 36.8 149.881 36.8H198.336C198.62 36.8 198.903 36.839 199.18 36.9322C199.32 36.9794 199.471 37.0383 199.632 37.1128C200.642 37.5805 201.309 38.3348 201.511 38.5724C201.851 38.9743 202.556 39.8252 203.006 41.2829C203.021 41.3293 203.032 41.3665 203.035 41.3761C203.373 42.5287 203.38 43.5283 203.384 44.1802C203.397 46.3207 202.828 49.1547 202.798 49.3051C202.669 49.9356 202.508 50.3739 202.45 50.5615C201.497 53.6187 199.784 58.9077 199.244 60.5699C199.197 60.7151 199.1 60.8027 198.992 60.7999C197.875 60.7721 196.758 60.744 195.641 60.7163" fill="#CECAC9"/>
<path d="M208.561 60.7999C206.274 60.7559 203.988 60.7121 201.702 60.6683C201.463 60.6636 201.313 60.278 201.424 59.9586C202.643 56.4644 203.515 53.6759 203.976 52.0584C204.402 50.5636 204.728 49.1904 204.952 48.2431C205.08 47.7026 205.148 47.3955 205.218 46.9865C205.492 45.3712 205.455 44.1006 205.443 43.7852C205.431 43.4509 205.38 42.3784 205.082 41.0605C204.921 40.3471 204.615 39.0323 203.841 37.708C203.679 37.4304 203.029 36.3501 201.92 35.5199C201.833 35.4543 201.746 35.393 201.66 35.3359C200.887 34.8191 200.042 34.5898 199.196 34.5898H150.866C150.639 34.5898 150.48 34.2504 150.555 33.9266C150.929 32.3283 151.302 30.7302 151.676 29.132C151.723 28.933 151.847 28.8 151.987 28.8H203.124C203.377 28.8 203.627 28.8187 203.878 28.8666C204.309 28.9491 204.827 29.0922 205.398 29.3449C205.75 29.5007 207.216 30.1821 208.782 32.0014C210.514 34.0148 211.396 36.2929 211.669 37.0418C211.886 37.6359 212.848 40.3677 212.978 44.2619C213.095 47.7725 212.495 50.4211 212.301 51.2096C211.926 52.7316 211.658 53.1091 210.549 56.3838C210.063 57.8198 209.667 59.0695 209.37 60.0339C209.224 60.5087 208.907 60.8066 208.561 60.7999Z" fill="#D0AC5F"/>
<path d="M111.183 43.2415C111.001 43.2398 110.876 43.058 110.935 42.8861C114.111 33.6117 116.351 26.9813 116.963 24.9016C117.04 24.6379 117.284 23.7938 117.817 22.7694C118.102 22.2224 118.793 20.9176 120.037 19.7844C121.867 18.1182 123.991 17.6418 125.057 17.4845C125.07 17.4825 125.083 17.4817 125.097 17.4817H139.155C139.333 17.4817 139.462 17.6535 139.411 17.8244C138.807 19.8359 138.205 21.8473 137.602 23.8588C137.568 23.9715 137.464 24.0487 137.346 24.0487H128.509C128.495 24.0487 128.483 24.0477 128.47 24.0454C128.139 23.9882 127.551 23.9405 126.955 24.2194C126.213 24.5662 125.868 25.2265 125.503 25.925C125.334 26.2484 125.129 26.711 124.979 27.3039C124.937 27.4696 125.068 27.6307 125.24 27.6307H134.096C134.279 27.6307 134.408 27.8113 134.348 27.9842C133.641 30.0241 132.934 32.064 132.227 34.1039C132.189 34.2111 132.088 34.2831 131.975 34.2831H123.04C122.922 34.2831 122.818 34.3602 122.784 34.4729C121.916 37.3591 121.048 40.2454 120.18 43.1319C120.146 43.2454 120.041 43.3226 119.923 43.3216L111.183 43.2415Z" fill="#D1AB63"/>
<path d="M75.5085 43.2415C75.3263 43.2398 75.2003 43.058 75.2593 42.8861C78.4395 33.6117 80.6829 26.9813 81.2957 24.9016C81.3733 24.6379 81.6174 23.7938 82.1509 22.7694C82.4357 22.2224 83.1287 20.9176 84.3743 19.7844C86.206 18.1182 88.3331 17.6418 89.4003 17.4845C89.4141 17.4825 89.4268 17.4817 89.4407 17.4817H103.518C103.696 17.4817 103.825 17.6535 103.773 17.8244C103.17 19.8359 102.566 21.8473 101.962 23.8588C101.928 23.9715 101.824 24.0487 101.706 24.0487H92.8577C92.8439 24.0487 92.8315 24.0477 92.8178 24.0454C92.4872 23.9882 91.8985 23.9405 91.3012 24.2194C90.5583 24.5662 90.2128 25.2265 89.8473 25.925C89.6782 26.2484 89.4726 26.711 89.3226 27.3039C89.2806 27.4696 89.4121 27.6307 89.5835 27.6307H98.452C98.6355 27.6307 98.7643 27.8113 98.7043 27.9842C97.996 30.0241 97.2881 32.064 96.5799 34.1039C96.5426 34.2111 96.4413 34.2831 96.3276 34.2831H87.3808C87.263 34.2831 87.159 34.3602 87.1251 34.4729C86.256 37.3591 85.3867 40.2454 84.5175 43.1319C84.4833 43.2454 84.3781 43.3226 84.2593 43.3216L75.5085 43.2415Z" fill="#D1AB63"/>
</svg>
