<svg width="160" height="2240" viewBox="0 0 160 2240" fill="none" xmlns="http://www.w3.org/2000/svg">
<g opacity="0.1" clip-path="url(#clip0_4022_39)">
<path d="M113.822 52.8389C113.811 53.2767 113.118 53.5567 112.528 53.3648C108.979 52.2098 105.929 51.2391 103.519 50.4801C99.2071 49.1215 97.0374 48.4632 96.4527 48.2804C93.6215 47.3955 90.6628 46.6822 87.923 45.6774C87.6641 45.5822 85.8364 44.9102 83.2688 44.3191C81.1316 43.8269 80.1888 43.7839 79.7264 43.7748C78.9712 43.7601 77.2239 43.7406 75.4061 44.4397C73.844 45.0402 73.0445 45.8585 72.6372 46.286C71.4633 47.5181 71.2397 48.7364 71.197 49.3882L71.1969 150.844C71.1969 151.605 70.113 152.158 69.0114 151.959C67.4343 151.674 65.8573 151.39 64.2802 151.105C63.5247 150.969 63 150.512 63 149.99L63 47.1165C63 46.5138 63.0829 45.9137 63.281 45.3258C63.3812 45.0286 63.5065 44.7066 63.6646 44.3656C64.6586 42.2221 66.2614 40.8045 66.7663 40.3773C67.6204 39.6545 69.4286 38.1585 72.5262 37.2012C72.6248 37.1706 72.7038 37.1475 72.7243 37.1417C75.1735 36.422 77.2976 36.4089 78.683 36.4005C83.2314 36.3724 89.2537 37.5795 89.5734 37.6444C90.9132 37.9176 91.8446 38.2588 92.2431 38.3831C98.7399 40.4056 109.979 44.0436 113.511 45.1885C113.82 45.2883 114.006 45.496 114 45.7249C113.941 48.0961 113.881 50.4674 113.822 52.8388" fill="#CECAC9"/>
<path d="M114 25.4095C113.906 30.2635 113.813 35.1174 113.72 39.9712C113.71 40.4789 112.891 40.7977 112.212 40.5608C104.787 37.9725 98.8613 36.1211 95.424 35.1425C92.2478 34.238 89.3297 33.5476 87.3166 33.0711C86.168 32.7992 85.5154 32.6544 84.6464 32.5073C81.2138 31.9255 78.5139 32.0035 77.8435 32.0284C77.1332 32.0544 74.854 32.1629 72.0536 32.7946C70.5377 33.1366 67.7437 33.7874 64.9296 35.4288C64.3396 35.7729 62.0441 37.1547 60.2798 39.5077C60.1405 39.6937 60.0102 39.8775 59.8888 40.0593C58.7905 41.7021 58.3033 43.4952 58.3033 45.2916L58.3033 147.9C58.3033 148.383 57.5821 148.72 56.894 148.56C53.4977 147.766 50.1017 146.973 46.7054 146.18C46.2827 146.081 46 145.817 46 145.52L46 36.951C46 36.4154 46.0397 35.883 46.1415 35.3518C46.3169 34.4362 46.621 33.3369 47.1579 32.1239C47.489 31.3772 48.9371 28.2633 52.8029 24.94C57.0815 21.2618 61.9224 19.389 63.5138 18.8096C64.7762 18.3502 70.5814 16.3073 78.8565 16.032C86.3166 15.7836 91.9448 17.056 93.6204 17.4686C96.8547 18.2652 97.6569 18.8337 104.616 21.1878C107.667 22.2205 110.323 23.0617 112.372 23.6917C113.381 24.0019 114.014 24.6732 114 25.4095Z" fill="#D0AC5F"/>
<path d="M46.1777 267.161C46.1889 266.723 46.882 266.443 47.4719 266.635C51.0214 267.79 54.0713 268.761 56.4807 269.52C60.7929 270.879 62.9626 271.537 63.5472 271.72C66.3785 272.604 69.3372 273.318 72.077 274.323C72.3359 274.418 74.1636 275.09 76.7312 275.681C78.8684 276.173 79.8112 276.216 80.2736 276.225C81.0288 276.24 82.7761 276.259 84.5939 275.56C86.156 274.96 86.9555 274.141 87.3628 273.714C88.5366 272.482 88.7602 271.264 88.803 270.612L88.8031 169.156C88.8031 168.395 89.887 167.842 90.9886 168.041C92.5657 168.326 94.1427 168.61 95.7198 168.895C96.4753 169.031 97 169.488 97 170.01L97 272.884C97 273.486 96.9171 274.086 96.719 274.674C96.6188 274.971 96.4935 275.293 96.3354 275.634C95.3414 277.778 93.7385 279.196 93.2337 279.623C92.3795 280.345 90.5714 281.841 87.4738 282.799C87.3752 282.829 87.2961 282.853 87.2757 282.858C84.8265 283.578 82.7024 283.591 81.317 283.6C76.7686 283.628 70.7463 282.421 70.4266 282.356C69.0868 282.082 68.1554 281.741 67.7569 281.617C61.2601 279.594 50.0211 275.956 46.4889 274.812C46.1803 274.712 45.9942 274.504 46.0001 274.275C46.0594 271.904 46.1189 269.533 46.1779 267.161" fill="#CECAC9"/>
<path d="M46.0002 294.591C46.0936 289.737 46.1867 284.883 46.2798 280.029C46.2897 279.521 47.1093 279.202 47.7881 279.439C55.2132 282.027 61.1387 283.879 64.5759 284.857C67.7522 285.762 70.6703 286.452 72.6834 286.929C73.832 287.201 74.4846 287.346 75.3536 287.493C78.7862 288.074 81.4861 287.996 82.1565 287.972C82.8668 287.946 85.146 287.837 87.9463 287.205C89.4623 286.863 92.2563 286.213 95.0704 284.571C95.6604 284.227 97.9559 282.845 99.7201 280.492C99.8595 280.306 99.9898 280.122 100.111 279.941C101.209 278.298 101.697 276.505 101.697 274.708L101.697 172.1C101.697 171.617 102.418 171.28 103.106 171.44C106.502 172.234 109.898 173.027 113.295 173.82C113.717 173.919 114 174.183 114 174.48L114 283.049C114 283.585 113.96 284.117 113.858 284.648C113.683 285.564 113.379 286.663 112.842 287.876C112.511 288.623 111.063 291.737 107.197 295.06C102.918 298.738 98.0775 300.611 96.4862 301.19C95.2237 301.65 89.4186 303.693 81.1435 303.968C73.6834 304.216 68.0552 302.944 66.3796 302.531C63.1453 301.735 62.3431 301.166 55.3845 298.812C52.3329 297.78 49.6774 296.938 47.6279 296.308C46.619 295.998 45.9859 295.327 46.0002 294.591Z" fill="#D0AC5F"/>
</g>
<g opacity="0.1" clip-path="url(#clip1_4022_39)">
<path d="M113.822 372.839C113.811 373.277 113.118 373.557 112.528 373.365C108.979 372.21 105.929 371.239 103.519 370.48C99.2071 369.121 97.0374 368.463 96.4527 368.28C93.6215 367.396 90.6628 366.682 87.923 365.677C87.6641 365.582 85.8364 364.91 83.2688 364.319C81.1316 363.827 80.1888 363.784 79.7264 363.775C78.9712 363.76 77.2239 363.741 75.4061 364.44C73.844 365.04 73.0445 365.859 72.6372 366.286C71.4633 367.518 71.2397 368.736 71.197 369.388L71.1969 470.844C71.1969 471.605 70.113 472.158 69.0114 471.959C67.4343 471.674 65.8573 471.39 64.2802 471.105C63.5247 470.969 63 470.512 63 469.99L63 367.116C63 366.514 63.0829 365.914 63.281 365.326C63.3812 365.029 63.5065 364.707 63.6646 364.366C64.6586 362.222 66.2614 360.804 66.7663 360.377C67.6204 359.655 69.4286 358.159 72.5262 357.201C72.6248 357.171 72.7038 357.147 72.7243 357.142C75.1735 356.422 77.2976 356.409 78.683 356.4C83.2314 356.372 89.2537 357.579 89.5734 357.644C90.9132 357.918 91.8446 358.259 92.2431 358.383C98.7399 360.406 109.979 364.044 113.511 365.188C113.82 365.288 114.006 365.496 114 365.725C113.941 368.096 113.881 370.467 113.822 372.839" fill="#CECAC9"/>
<path d="M114 345.409C113.906 350.263 113.813 355.117 113.72 359.971C113.71 360.479 112.891 360.798 112.212 360.561C104.787 357.973 98.8613 356.121 95.424 355.143C92.2478 354.238 89.3297 353.548 87.3166 353.071C86.168 352.799 85.5154 352.654 84.6464 352.507C81.2138 351.926 78.5139 352.004 77.8435 352.028C77.1332 352.054 74.854 352.163 72.0536 352.795C70.5377 353.137 67.7437 353.787 64.9296 355.429C64.3396 355.773 62.0441 357.155 60.2798 359.508C60.1405 359.694 60.0102 359.878 59.8888 360.059C58.7905 361.702 58.3033 363.495 58.3033 365.292L58.3033 467.9C58.3033 468.383 57.5821 468.72 56.894 468.56C53.4977 467.766 50.1017 466.973 46.7054 466.18C46.2827 466.081 46 465.817 46 465.52L46 356.951C46 356.415 46.0397 355.883 46.1415 355.352C46.3169 354.436 46.621 353.337 47.1579 352.124C47.489 351.377 48.9371 348.263 52.8029 344.94C57.0815 341.262 61.9224 339.389 63.5138 338.81C64.7762 338.35 70.5814 336.307 78.8565 336.032C86.3166 335.784 91.9448 337.056 93.6204 337.469C96.8547 338.265 97.6569 338.834 104.616 341.188C107.667 342.22 110.323 343.062 112.372 343.692C113.381 344.002 114.014 344.673 114 345.409Z" fill="#D0AC5F"/>
<path d="M46.1777 587.161C46.1889 586.723 46.882 586.443 47.4719 586.635C51.0214 587.79 54.0713 588.761 56.4807 589.52C60.7929 590.879 62.9626 591.537 63.5472 591.72C66.3785 592.604 69.3372 593.318 72.077 594.323C72.3359 594.418 74.1636 595.09 76.7312 595.681C78.8684 596.173 79.8112 596.216 80.2736 596.225C81.0288 596.24 82.7761 596.259 84.5939 595.56C86.156 594.96 86.9555 594.141 87.3628 593.714C88.5366 592.482 88.7602 591.264 88.803 590.612L88.8031 489.156C88.8031 488.395 89.887 487.842 90.9886 488.041C92.5657 488.326 94.1427 488.61 95.7198 488.895C96.4753 489.031 97 489.488 97 490.01L97 592.884C97 593.486 96.9171 594.086 96.719 594.674C96.6188 594.971 96.4935 595.293 96.3354 595.634C95.3414 597.778 93.7385 599.196 93.2337 599.623C92.3795 600.345 90.5714 601.841 87.4738 602.799C87.3752 602.829 87.2961 602.853 87.2757 602.858C84.8265 603.578 82.7024 603.591 81.317 603.6C76.7686 603.628 70.7463 602.421 70.4266 602.356C69.0868 602.082 68.1554 601.741 67.7569 601.617C61.2601 599.594 50.0211 595.956 46.4889 594.812C46.1803 594.712 45.9942 594.504 46.0001 594.275C46.0594 591.904 46.1189 589.533 46.1779 587.161" fill="#CECAC9"/>
<path d="M46.0002 614.591C46.0936 609.737 46.1867 604.883 46.2798 600.029C46.2897 599.521 47.1093 599.202 47.7881 599.439C55.2132 602.027 61.1387 603.879 64.5759 604.857C67.7522 605.762 70.6703 606.452 72.6834 606.929C73.832 607.201 74.4846 607.346 75.3536 607.493C78.7862 608.074 81.4861 607.996 82.1565 607.972C82.8668 607.946 85.146 607.837 87.9463 607.205C89.4623 606.863 92.2563 606.213 95.0704 604.571C95.6604 604.227 97.9559 602.845 99.7201 600.492C99.8595 600.306 99.9898 600.122 100.111 599.941C101.209 598.298 101.697 596.505 101.697 594.708L101.697 492.1C101.697 491.617 102.418 491.28 103.106 491.44C106.502 492.234 109.898 493.027 113.295 493.82C113.717 493.919 114 494.183 114 494.48L114 603.049C114 603.585 113.96 604.117 113.858 604.648C113.683 605.564 113.379 606.663 112.842 607.876C112.511 608.623 111.063 611.737 107.197 615.06C102.918 618.738 98.0775 620.611 96.4862 621.19C95.2237 621.65 89.4186 623.693 81.1435 623.968C73.6834 624.216 68.0552 622.944 66.3796 622.531C63.1453 621.735 62.3431 621.166 55.3845 618.812C52.3329 617.78 49.6774 616.938 47.6279 616.308C46.619 615.998 45.9859 615.327 46.0002 614.591Z" fill="#D0AC5F"/>
</g>
<g opacity="0.1" clip-path="url(#clip2_4022_39)">
<path d="M113.822 692.839C113.811 693.277 113.118 693.557 112.528 693.365C108.979 692.21 105.929 691.239 103.519 690.48C99.2071 689.121 97.0374 688.463 96.4527 688.28C93.6215 687.396 90.6628 686.682 87.923 685.677C87.6641 685.582 85.8364 684.91 83.2688 684.319C81.1316 683.827 80.1888 683.784 79.7264 683.775C78.9712 683.76 77.2239 683.741 75.4061 684.44C73.844 685.04 73.0445 685.859 72.6372 686.286C71.4633 687.518 71.2397 688.736 71.197 689.388L71.1969 790.844C71.1969 791.605 70.113 792.158 69.0114 791.959C67.4343 791.674 65.8573 791.39 64.2802 791.105C63.5247 790.969 63 790.512 63 789.99L63 687.116C63 686.514 63.0829 685.914 63.281 685.326C63.3812 685.029 63.5065 684.707 63.6646 684.366C64.6586 682.222 66.2614 680.804 66.7663 680.377C67.6204 679.655 69.4286 678.159 72.5262 677.201C72.6248 677.171 72.7038 677.147 72.7243 677.142C75.1735 676.422 77.2976 676.409 78.683 676.4C83.2314 676.372 89.2537 677.579 89.5734 677.644C90.9132 677.918 91.8446 678.259 92.2431 678.383C98.7399 680.406 109.979 684.044 113.511 685.188C113.82 685.288 114.006 685.496 114 685.725C113.941 688.096 113.881 690.467 113.822 692.839" fill="#CECAC9"/>
<path d="M114 665.409C113.906 670.263 113.813 675.117 113.72 679.971C113.71 680.479 112.891 680.798 112.212 680.561C104.787 677.973 98.8613 676.121 95.424 675.143C92.2478 674.238 89.3297 673.548 87.3166 673.071C86.168 672.799 85.5154 672.654 84.6464 672.507C81.2138 671.926 78.5139 672.004 77.8435 672.028C77.1332 672.054 74.854 672.163 72.0536 672.795C70.5377 673.137 67.7437 673.787 64.9296 675.429C64.3396 675.773 62.0441 677.155 60.2798 679.508C60.1405 679.694 60.0102 679.878 59.8888 680.059C58.7905 681.702 58.3033 683.495 58.3033 685.292L58.3033 787.9C58.3033 788.383 57.5821 788.72 56.894 788.56C53.4977 787.766 50.1017 786.973 46.7054 786.18C46.2827 786.081 46 785.817 46 785.52L46 676.951C46 676.415 46.0397 675.883 46.1415 675.352C46.3169 674.436 46.621 673.337 47.1579 672.124C47.489 671.377 48.9371 668.263 52.8029 664.94C57.0815 661.262 61.9224 659.389 63.5138 658.81C64.7762 658.35 70.5814 656.307 78.8565 656.032C86.3166 655.784 91.9448 657.056 93.6204 657.469C96.8547 658.265 97.6569 658.834 104.616 661.188C107.667 662.22 110.323 663.062 112.372 663.692C113.381 664.002 114.014 664.673 114 665.409Z" fill="#D0AC5F"/>
<path d="M46.1777 907.161C46.1889 906.723 46.882 906.443 47.4719 906.635C51.0214 907.79 54.0713 908.761 56.4807 909.52C60.7929 910.879 62.9626 911.537 63.5472 911.72C66.3785 912.604 69.3372 913.318 72.077 914.323C72.3359 914.418 74.1636 915.09 76.7312 915.681C78.8684 916.173 79.8112 916.216 80.2736 916.225C81.0288 916.24 82.7761 916.259 84.5939 915.56C86.156 914.96 86.9555 914.141 87.3628 913.714C88.5366 912.482 88.7602 911.264 88.803 910.612L88.8031 809.156C88.8031 808.395 89.887 807.842 90.9886 808.041C92.5657 808.326 94.1427 808.61 95.7198 808.895C96.4753 809.031 97 809.488 97 810.01L97 912.884C97 913.486 96.9171 914.086 96.719 914.674C96.6188 914.971 96.4935 915.293 96.3354 915.634C95.3414 917.778 93.7385 919.196 93.2337 919.623C92.3795 920.345 90.5714 921.841 87.4738 922.799C87.3752 922.829 87.2961 922.853 87.2757 922.858C84.8265 923.578 82.7024 923.591 81.317 923.6C76.7686 923.628 70.7463 922.421 70.4266 922.356C69.0868 922.082 68.1554 921.741 67.7569 921.617C61.2601 919.594 50.0211 915.956 46.4889 914.812C46.1803 914.712 45.9942 914.504 46.0001 914.275C46.0594 911.904 46.1189 909.533 46.1779 907.161" fill="#CECAC9"/>
<path d="M46.0002 934.591C46.0936 929.737 46.1867 924.883 46.2798 920.029C46.2897 919.521 47.1093 919.202 47.7881 919.439C55.2132 922.027 61.1387 923.879 64.5759 924.857C67.7522 925.762 70.6703 926.452 72.6834 926.929C73.832 927.201 74.4846 927.346 75.3536 927.493C78.7862 928.074 81.4861 927.996 82.1565 927.972C82.8668 927.946 85.146 927.837 87.9463 927.205C89.4623 926.863 92.2563 926.213 95.0704 924.571C95.6604 924.227 97.9559 922.845 99.7201 920.492C99.8595 920.306 99.9898 920.122 100.111 919.941C101.209 918.298 101.697 916.505 101.697 914.708L101.697 812.1C101.697 811.617 102.418 811.28 103.106 811.44C106.502 812.234 109.898 813.027 113.295 813.82C113.717 813.919 114 814.183 114 814.48L114 923.049C114 923.585 113.96 924.117 113.858 924.648C113.683 925.564 113.379 926.663 112.842 927.876C112.511 928.623 111.063 931.737 107.197 935.06C102.918 938.738 98.0775 940.611 96.4862 941.19C95.2237 941.65 89.4186 943.693 81.1435 943.968C73.6834 944.216 68.0552 942.944 66.3796 942.531C63.1453 941.735 62.3431 941.166 55.3845 938.812C52.3329 937.78 49.6774 936.938 47.6279 936.308C46.619 935.998 45.9859 935.327 46.0002 934.591Z" fill="#D0AC5F"/>
</g>
<g opacity="0.1" clip-path="url(#clip3_4022_39)">
<path d="M113.822 1012.84C113.811 1013.28 113.118 1013.56 112.528 1013.36C108.979 1012.21 105.929 1011.24 103.519 1010.48C99.2071 1009.12 97.0374 1008.46 96.4527 1008.28C93.6215 1007.4 90.6628 1006.68 87.923 1005.68C87.6641 1005.58 85.8364 1004.91 83.2688 1004.32C81.1316 1003.83 80.1888 1003.78 79.7264 1003.77C78.9712 1003.76 77.2239 1003.74 75.4061 1004.44C73.844 1005.04 73.0445 1005.86 72.6372 1006.29C71.4633 1007.52 71.2397 1008.74 71.197 1009.39L71.1969 1110.84C71.1969 1111.6 70.113 1112.16 69.0114 1111.96C67.4343 1111.67 65.8573 1111.39 64.2802 1111.11C63.5247 1110.97 63 1110.51 63 1109.99L63 1007.12C63 1006.51 63.0829 1005.91 63.281 1005.33C63.3812 1005.03 63.5065 1004.71 63.6646 1004.37C64.6586 1002.22 66.2614 1000.8 66.7663 1000.38C67.6204 999.655 69.4286 998.159 72.5262 997.201C72.6248 997.171 72.7038 997.147 72.7243 997.142C75.1735 996.422 77.2976 996.409 78.683 996.4C83.2314 996.372 89.2537 997.579 89.5734 997.644C90.9132 997.918 91.8446 998.259 92.2431 998.383C98.7399 1000.41 109.979 1004.04 113.511 1005.19C113.82 1005.29 114.006 1005.5 114 1005.72C113.941 1008.1 113.881 1010.47 113.822 1012.84" fill="#CECAC9"/>
<path d="M114 985.409C113.906 990.263 113.813 995.117 113.72 999.971C113.71 1000.48 112.891 1000.8 112.212 1000.56C104.787 997.973 98.8613 996.121 95.424 995.143C92.2478 994.238 89.3297 993.548 87.3166 993.071C86.168 992.799 85.5154 992.654 84.6464 992.507C81.2138 991.926 78.5139 992.004 77.8435 992.028C77.1332 992.054 74.854 992.163 72.0536 992.795C70.5377 993.137 67.7437 993.787 64.9296 995.429C64.3396 995.773 62.0441 997.155 60.2798 999.508C60.1405 999.694 60.0102 999.878 59.8888 1000.06C58.7905 1001.7 58.3033 1003.5 58.3033 1005.29L58.3033 1107.9C58.3033 1108.38 57.5821 1108.72 56.894 1108.56C53.4977 1107.77 50.1017 1106.97 46.7054 1106.18C46.2827 1106.08 46 1105.82 46 1105.52L46 996.951C46 996.415 46.0397 995.883 46.1415 995.352C46.3169 994.436 46.621 993.337 47.1579 992.124C47.489 991.377 48.9371 988.263 52.8029 984.94C57.0815 981.262 61.9224 979.389 63.5138 978.81C64.7762 978.35 70.5814 976.307 78.8565 976.032C86.3166 975.784 91.9448 977.056 93.6204 977.469C96.8547 978.265 97.6569 978.834 104.616 981.188C107.667 982.22 110.323 983.062 112.372 983.692C113.381 984.002 114.014 984.673 114 985.409Z" fill="#D0AC5F"/>
<path d="M46.1777 1227.16C46.1889 1226.72 46.882 1226.44 47.4719 1226.64C51.0214 1227.79 54.0713 1228.76 56.4807 1229.52C60.7929 1230.88 62.9626 1231.54 63.5472 1231.72C66.3785 1232.6 69.3372 1233.32 72.077 1234.32C72.3359 1234.42 74.1636 1235.09 76.7312 1235.68C78.8684 1236.17 79.8112 1236.22 80.2736 1236.23C81.0288 1236.24 82.7761 1236.26 84.5939 1235.56C86.156 1234.96 86.9555 1234.14 87.3628 1233.71C88.5366 1232.48 88.7602 1231.26 88.803 1230.61L88.8031 1129.16C88.8031 1128.4 89.887 1127.84 90.9886 1128.04C92.5657 1128.33 94.1427 1128.61 95.7198 1128.89C96.4753 1129.03 97 1129.49 97 1130.01L97 1232.88C97 1233.49 96.9171 1234.09 96.719 1234.67C96.6188 1234.97 96.4935 1235.29 96.3354 1235.63C95.3414 1237.78 93.7385 1239.2 93.2337 1239.62C92.3795 1240.35 90.5714 1241.84 87.4738 1242.8C87.3752 1242.83 87.2961 1242.85 87.2757 1242.86C84.8265 1243.58 82.7024 1243.59 81.317 1243.6C76.7686 1243.63 70.7463 1242.42 70.4266 1242.36C69.0868 1242.08 68.1554 1241.74 67.7569 1241.62C61.2601 1239.59 50.0211 1235.96 46.4889 1234.81C46.1803 1234.71 45.9942 1234.5 46.0001 1234.28C46.0594 1231.9 46.1189 1229.53 46.1779 1227.16" fill="#CECAC9"/>
<path d="M46.0002 1254.59C46.0936 1249.74 46.1867 1244.88 46.2798 1240.03C46.2897 1239.52 47.1093 1239.2 47.7881 1239.44C55.2132 1242.03 61.1387 1243.88 64.5759 1244.86C67.7522 1245.76 70.6703 1246.45 72.6834 1246.93C73.832 1247.2 74.4846 1247.35 75.3536 1247.49C78.7862 1248.07 81.4861 1248 82.1565 1247.97C82.8668 1247.95 85.146 1247.84 87.9463 1247.21C89.4623 1246.86 92.2563 1246.21 95.0704 1244.57C95.6604 1244.23 97.9559 1242.85 99.7201 1240.49C99.8595 1240.31 99.9898 1240.12 100.111 1239.94C101.209 1238.3 101.697 1236.5 101.697 1234.71L101.697 1132.1C101.697 1131.62 102.418 1131.28 103.106 1131.44C106.502 1132.23 109.898 1133.03 113.295 1133.82C113.717 1133.92 114 1134.18 114 1134.48L114 1243.05C114 1243.58 113.96 1244.12 113.858 1244.65C113.683 1245.56 113.379 1246.66 112.842 1247.88C112.511 1248.62 111.063 1251.74 107.197 1255.06C102.918 1258.74 98.0775 1260.61 96.4862 1261.19C95.2237 1261.65 89.4186 1263.69 81.1435 1263.97C73.6834 1264.22 68.0552 1262.94 66.3796 1262.53C63.1453 1261.73 62.3431 1261.17 55.3845 1258.81C52.3329 1257.78 49.6774 1256.94 47.6279 1256.31C46.619 1256 45.9859 1255.33 46.0002 1254.59Z" fill="#D0AC5F"/>
</g>
<g opacity="0.1" clip-path="url(#clip4_4022_39)">
<path d="M113.822 1332.84C113.811 1333.28 113.118 1333.56 112.528 1333.36C108.979 1332.21 105.929 1331.24 103.519 1330.48C99.2071 1329.12 97.0374 1328.46 96.4527 1328.28C93.6215 1327.4 90.6628 1326.68 87.923 1325.68C87.6641 1325.58 85.8364 1324.91 83.2688 1324.32C81.1316 1323.83 80.1888 1323.78 79.7264 1323.77C78.9712 1323.76 77.2239 1323.74 75.4061 1324.44C73.844 1325.04 73.0445 1325.86 72.6372 1326.29C71.4633 1327.52 71.2397 1328.74 71.197 1329.39L71.1969 1430.84C71.1969 1431.6 70.113 1432.16 69.0114 1431.96C67.4343 1431.67 65.8573 1431.39 64.2802 1431.11C63.5247 1430.97 63 1430.51 63 1429.99L63 1327.12C63 1326.51 63.0829 1325.91 63.281 1325.33C63.3812 1325.03 63.5065 1324.71 63.6646 1324.37C64.6586 1322.22 66.2614 1320.8 66.7663 1320.38C67.6204 1319.65 69.4286 1318.16 72.5262 1317.2C72.6248 1317.17 72.7038 1317.15 72.7243 1317.14C75.1735 1316.42 77.2976 1316.41 78.683 1316.4C83.2314 1316.37 89.2537 1317.58 89.5734 1317.64C90.9132 1317.92 91.8446 1318.26 92.2431 1318.38C98.7399 1320.41 109.979 1324.04 113.511 1325.19C113.82 1325.29 114.006 1325.5 114 1325.72C113.941 1328.1 113.881 1330.47 113.822 1332.84" fill="#CECAC9"/>
<path d="M114 1305.41C113.906 1310.26 113.813 1315.12 113.72 1319.97C113.71 1320.48 112.891 1320.8 112.212 1320.56C104.787 1317.97 98.8613 1316.12 95.424 1315.14C92.2478 1314.24 89.3297 1313.55 87.3166 1313.07C86.168 1312.8 85.5154 1312.65 84.6464 1312.51C81.2138 1311.93 78.5139 1312 77.8435 1312.03C77.1332 1312.05 74.854 1312.16 72.0536 1312.79C70.5377 1313.14 67.7437 1313.79 64.9296 1315.43C64.3396 1315.77 62.0441 1317.15 60.2798 1319.51C60.1405 1319.69 60.0102 1319.88 59.8888 1320.06C58.7905 1321.7 58.3033 1323.5 58.3033 1325.29L58.3033 1427.9C58.3033 1428.38 57.5821 1428.72 56.894 1428.56C53.4977 1427.77 50.1017 1426.97 46.7054 1426.18C46.2827 1426.08 46 1425.82 46 1425.52L46 1316.95C46 1316.42 46.0397 1315.88 46.1415 1315.35C46.3169 1314.44 46.621 1313.34 47.1579 1312.12C47.489 1311.38 48.9371 1308.26 52.8029 1304.94C57.0815 1301.26 61.9224 1299.39 63.5138 1298.81C64.7762 1298.35 70.5814 1296.31 78.8565 1296.03C86.3166 1295.78 91.9448 1297.06 93.6204 1297.47C96.8547 1298.27 97.6569 1298.83 104.616 1301.19C107.667 1302.22 110.323 1303.06 112.372 1303.69C113.381 1304 114.014 1304.67 114 1305.41Z" fill="#D0AC5F"/>
<path d="M46.1777 1547.16C46.1889 1546.72 46.882 1546.44 47.4719 1546.64C51.0214 1547.79 54.0713 1548.76 56.4807 1549.52C60.7929 1550.88 62.9626 1551.54 63.5472 1551.72C66.3785 1552.6 69.3372 1553.32 72.077 1554.32C72.3359 1554.42 74.1636 1555.09 76.7312 1555.68C78.8684 1556.17 79.8112 1556.22 80.2736 1556.23C81.0288 1556.24 82.7761 1556.26 84.5939 1555.56C86.156 1554.96 86.9555 1554.14 87.3628 1553.71C88.5366 1552.48 88.7602 1551.26 88.803 1550.61L88.8031 1449.16C88.8031 1448.4 89.887 1447.84 90.9886 1448.04C92.5657 1448.33 94.1427 1448.61 95.7198 1448.89C96.4753 1449.03 97 1449.49 97 1450.01L97 1552.88C97 1553.49 96.9171 1554.09 96.719 1554.67C96.6188 1554.97 96.4935 1555.29 96.3354 1555.63C95.3414 1557.78 93.7385 1559.2 93.2337 1559.62C92.3795 1560.35 90.5714 1561.84 87.4738 1562.8C87.3752 1562.83 87.2961 1562.85 87.2757 1562.86C84.8265 1563.58 82.7024 1563.59 81.317 1563.6C76.7686 1563.63 70.7463 1562.42 70.4266 1562.36C69.0868 1562.08 68.1554 1561.74 67.7569 1561.62C61.2601 1559.59 50.0211 1555.96 46.4889 1554.81C46.1803 1554.71 45.9942 1554.5 46.0001 1554.28C46.0594 1551.9 46.1189 1549.53 46.1779 1547.16" fill="#CECAC9"/>
<path d="M46.0002 1574.59C46.0936 1569.74 46.1867 1564.88 46.2798 1560.03C46.2897 1559.52 47.1093 1559.2 47.7881 1559.44C55.2132 1562.03 61.1387 1563.88 64.5759 1564.86C67.7522 1565.76 70.6703 1566.45 72.6834 1566.93C73.832 1567.2 74.4846 1567.35 75.3536 1567.49C78.7862 1568.07 81.4861 1568 82.1565 1567.97C82.8668 1567.95 85.146 1567.84 87.9463 1567.21C89.4623 1566.86 92.2563 1566.21 95.0704 1564.57C95.6604 1564.23 97.9559 1562.85 99.7201 1560.49C99.8595 1560.31 99.9898 1560.12 100.111 1559.94C101.209 1558.3 101.697 1556.5 101.697 1554.71L101.697 1452.1C101.697 1451.62 102.418 1451.28 103.106 1451.44C106.502 1452.23 109.898 1453.03 113.295 1453.82C113.717 1453.92 114 1454.18 114 1454.48L114 1563.05C114 1563.58 113.96 1564.12 113.858 1564.65C113.683 1565.56 113.379 1566.66 112.842 1567.88C112.511 1568.62 111.063 1571.74 107.197 1575.06C102.918 1578.74 98.0775 1580.61 96.4862 1581.19C95.2237 1581.65 89.4186 1583.69 81.1435 1583.97C73.6834 1584.22 68.0552 1582.94 66.3796 1582.53C63.1453 1581.73 62.3431 1581.17 55.3845 1578.81C52.3329 1577.78 49.6774 1576.94 47.6279 1576.31C46.619 1576 45.9859 1575.33 46.0002 1574.59Z" fill="#D0AC5F"/>
</g>
<g opacity="0.1" clip-path="url(#clip5_4022_39)">
<path d="M113.822 1652.84C113.811 1653.28 113.118 1653.56 112.528 1653.36C108.979 1652.21 105.929 1651.24 103.519 1650.48C99.2071 1649.12 97.0374 1648.46 96.4527 1648.28C93.6215 1647.4 90.6628 1646.68 87.923 1645.68C87.6641 1645.58 85.8364 1644.91 83.2688 1644.32C81.1316 1643.83 80.1888 1643.78 79.7264 1643.77C78.9712 1643.76 77.2239 1643.74 75.4061 1644.44C73.844 1645.04 73.0445 1645.86 72.6372 1646.29C71.4633 1647.52 71.2397 1648.74 71.197 1649.39L71.1969 1750.84C71.1969 1751.6 70.113 1752.16 69.0114 1751.96C67.4343 1751.67 65.8573 1751.39 64.2802 1751.11C63.5247 1750.97 63 1750.51 63 1749.99L63 1647.12C63 1646.51 63.0829 1645.91 63.281 1645.33C63.3812 1645.03 63.5065 1644.71 63.6646 1644.37C64.6586 1642.22 66.2614 1640.8 66.7663 1640.38C67.6204 1639.65 69.4286 1638.16 72.5262 1637.2C72.6248 1637.17 72.7038 1637.15 72.7243 1637.14C75.1735 1636.42 77.2976 1636.41 78.683 1636.4C83.2314 1636.37 89.2537 1637.58 89.5734 1637.64C90.9132 1637.92 91.8446 1638.26 92.2431 1638.38C98.7399 1640.41 109.979 1644.04 113.511 1645.19C113.82 1645.29 114.006 1645.5 114 1645.72C113.941 1648.1 113.881 1650.47 113.822 1652.84" fill="#CECAC9"/>
<path d="M114 1625.41C113.906 1630.26 113.813 1635.12 113.72 1639.97C113.71 1640.48 112.891 1640.8 112.212 1640.56C104.787 1637.97 98.8613 1636.12 95.424 1635.14C92.2478 1634.24 89.3297 1633.55 87.3166 1633.07C86.168 1632.8 85.5154 1632.65 84.6464 1632.51C81.2138 1631.93 78.5139 1632 77.8435 1632.03C77.1332 1632.05 74.854 1632.16 72.0536 1632.79C70.5377 1633.14 67.7437 1633.79 64.9296 1635.43C64.3396 1635.77 62.0441 1637.15 60.2798 1639.51C60.1405 1639.69 60.0102 1639.88 59.8888 1640.06C58.7905 1641.7 58.3033 1643.5 58.3033 1645.29L58.3033 1747.9C58.3033 1748.38 57.5821 1748.72 56.894 1748.56C53.4977 1747.77 50.1017 1746.97 46.7054 1746.18C46.2827 1746.08 46 1745.82 46 1745.52L46 1636.95C46 1636.42 46.0397 1635.88 46.1415 1635.35C46.3169 1634.44 46.621 1633.34 47.1579 1632.12C47.489 1631.38 48.9371 1628.26 52.8029 1624.94C57.0815 1621.26 61.9224 1619.39 63.5138 1618.81C64.7762 1618.35 70.5814 1616.31 78.8565 1616.03C86.3166 1615.78 91.9448 1617.06 93.6204 1617.47C96.8547 1618.27 97.6569 1618.83 104.616 1621.19C107.667 1622.22 110.323 1623.06 112.372 1623.69C113.381 1624 114.014 1624.67 114 1625.41Z" fill="#D0AC5F"/>
<path d="M46.1777 1867.16C46.1889 1866.72 46.882 1866.44 47.4719 1866.64C51.0214 1867.79 54.0713 1868.76 56.4807 1869.52C60.7929 1870.88 62.9626 1871.54 63.5472 1871.72C66.3785 1872.6 69.3372 1873.32 72.077 1874.32C72.3359 1874.42 74.1636 1875.09 76.7312 1875.68C78.8684 1876.17 79.8112 1876.22 80.2736 1876.23C81.0288 1876.24 82.7761 1876.26 84.5939 1875.56C86.156 1874.96 86.9555 1874.14 87.3628 1873.71C88.5366 1872.48 88.7602 1871.26 88.803 1870.61L88.8031 1769.16C88.8031 1768.4 89.887 1767.84 90.9886 1768.04C92.5657 1768.33 94.1427 1768.61 95.7198 1768.89C96.4753 1769.03 97 1769.49 97 1770.01L97 1872.88C97 1873.49 96.9171 1874.09 96.719 1874.67C96.6188 1874.97 96.4935 1875.29 96.3354 1875.63C95.3414 1877.78 93.7385 1879.2 93.2337 1879.62C92.3795 1880.35 90.5714 1881.84 87.4738 1882.8C87.3752 1882.83 87.2961 1882.85 87.2757 1882.86C84.8265 1883.58 82.7024 1883.59 81.317 1883.6C76.7686 1883.63 70.7463 1882.42 70.4266 1882.36C69.0868 1882.08 68.1554 1881.74 67.7569 1881.62C61.2601 1879.59 50.0211 1875.96 46.4889 1874.81C46.1803 1874.71 45.9942 1874.5 46.0001 1874.28C46.0594 1871.9 46.1189 1869.53 46.1779 1867.16" fill="#CECAC9"/>
<path d="M46.0002 1894.59C46.0936 1889.74 46.1867 1884.88 46.2798 1880.03C46.2897 1879.52 47.1093 1879.2 47.7881 1879.44C55.2132 1882.03 61.1387 1883.88 64.5759 1884.86C67.7522 1885.76 70.6703 1886.45 72.6834 1886.93C73.832 1887.2 74.4846 1887.35 75.3536 1887.49C78.7862 1888.07 81.4861 1888 82.1565 1887.97C82.8668 1887.95 85.146 1887.84 87.9463 1887.21C89.4623 1886.86 92.2563 1886.21 95.0704 1884.57C95.6604 1884.23 97.9559 1882.85 99.7201 1880.49C99.8595 1880.31 99.9898 1880.12 100.111 1879.94C101.209 1878.3 101.697 1876.5 101.697 1874.71L101.697 1772.1C101.697 1771.62 102.418 1771.28 103.106 1771.44C106.502 1772.23 109.898 1773.03 113.295 1773.82C113.717 1773.92 114 1774.18 114 1774.48L114 1883.05C114 1883.58 113.96 1884.12 113.858 1884.65C113.683 1885.56 113.379 1886.66 112.842 1887.88C112.511 1888.62 111.063 1891.74 107.197 1895.06C102.918 1898.74 98.0775 1900.61 96.4862 1901.19C95.2237 1901.65 89.4186 1903.69 81.1435 1903.97C73.6834 1904.22 68.0552 1902.94 66.3796 1902.53C63.1453 1901.73 62.3431 1901.17 55.3845 1898.81C52.3329 1897.78 49.6774 1896.94 47.6279 1896.31C46.619 1896 45.9859 1895.33 46.0002 1894.59Z" fill="#D0AC5F"/>
</g>
<g opacity="0.1" clip-path="url(#clip6_4022_39)">
<path d="M113.822 1972.84C113.811 1973.28 113.118 1973.56 112.528 1973.36C108.979 1972.21 105.929 1971.24 103.519 1970.48C99.2071 1969.12 97.0374 1968.46 96.4527 1968.28C93.6215 1967.4 90.6628 1966.68 87.923 1965.68C87.6641 1965.58 85.8364 1964.91 83.2688 1964.32C81.1316 1963.83 80.1888 1963.78 79.7264 1963.77C78.9712 1963.76 77.2239 1963.74 75.4061 1964.44C73.844 1965.04 73.0445 1965.86 72.6372 1966.29C71.4633 1967.52 71.2397 1968.74 71.197 1969.39L71.1969 2070.84C71.1969 2071.6 70.113 2072.16 69.0114 2071.96C67.4343 2071.67 65.8573 2071.39 64.2802 2071.11C63.5247 2070.97 63 2070.51 63 2069.99L63 1967.12C63 1966.51 63.0829 1965.91 63.281 1965.33C63.3812 1965.03 63.5065 1964.71 63.6646 1964.37C64.6586 1962.22 66.2614 1960.8 66.7663 1960.38C67.6204 1959.65 69.4286 1958.16 72.5262 1957.2C72.6248 1957.17 72.7038 1957.15 72.7243 1957.14C75.1735 1956.42 77.2976 1956.41 78.683 1956.4C83.2314 1956.37 89.2537 1957.58 89.5734 1957.64C90.9132 1957.92 91.8446 1958.26 92.2431 1958.38C98.7399 1960.41 109.979 1964.04 113.511 1965.19C113.82 1965.29 114.006 1965.5 114 1965.72C113.941 1968.1 113.881 1970.47 113.822 1972.84" fill="#CECAC9"/>
<path d="M114 1945.41C113.906 1950.26 113.813 1955.12 113.72 1959.97C113.71 1960.48 112.891 1960.8 112.212 1960.56C104.787 1957.97 98.8613 1956.12 95.424 1955.14C92.2478 1954.24 89.3297 1953.55 87.3166 1953.07C86.168 1952.8 85.5154 1952.65 84.6464 1952.51C81.2138 1951.93 78.5139 1952 77.8435 1952.03C77.1332 1952.05 74.854 1952.16 72.0536 1952.79C70.5377 1953.14 67.7437 1953.79 64.9296 1955.43C64.3396 1955.77 62.0441 1957.15 60.2798 1959.51C60.1405 1959.69 60.0102 1959.88 59.8888 1960.06C58.7905 1961.7 58.3033 1963.5 58.3033 1965.29L58.3033 2067.9C58.3033 2068.38 57.5821 2068.72 56.894 2068.56C53.4977 2067.77 50.1017 2066.97 46.7054 2066.18C46.2827 2066.08 46 2065.82 46 2065.52L46 1956.95C46 1956.42 46.0397 1955.88 46.1415 1955.35C46.3169 1954.44 46.621 1953.34 47.1579 1952.12C47.489 1951.38 48.9371 1948.26 52.8029 1944.94C57.0815 1941.26 61.9224 1939.39 63.5138 1938.81C64.7762 1938.35 70.5814 1936.31 78.8565 1936.03C86.3166 1935.78 91.9448 1937.06 93.6204 1937.47C96.8547 1938.27 97.6569 1938.83 104.616 1941.19C107.667 1942.22 110.323 1943.06 112.372 1943.69C113.381 1944 114.014 1944.67 114 1945.41Z" fill="#D0AC5F"/>
<path d="M46.1777 2187.16C46.1889 2186.72 46.882 2186.44 47.4719 2186.64C51.0214 2187.79 54.0713 2188.76 56.4807 2189.52C60.7929 2190.88 62.9626 2191.54 63.5472 2191.72C66.3785 2192.6 69.3372 2193.32 72.077 2194.32C72.3359 2194.42 74.1636 2195.09 76.7312 2195.68C78.8684 2196.17 79.8112 2196.22 80.2736 2196.23C81.0288 2196.24 82.7761 2196.26 84.5939 2195.56C86.156 2194.96 86.9555 2194.14 87.3628 2193.71C88.5366 2192.48 88.7602 2191.26 88.803 2190.61L88.8031 2089.16C88.8031 2088.4 89.887 2087.84 90.9886 2088.04C92.5657 2088.33 94.1427 2088.61 95.7198 2088.89C96.4753 2089.03 97 2089.49 97 2090.01L97 2192.88C97 2193.49 96.9171 2194.09 96.719 2194.67C96.6188 2194.97 96.4935 2195.29 96.3354 2195.63C95.3414 2197.78 93.7385 2199.2 93.2337 2199.62C92.3795 2200.35 90.5714 2201.84 87.4738 2202.8C87.3752 2202.83 87.2961 2202.85 87.2757 2202.86C84.8265 2203.58 82.7024 2203.59 81.317 2203.6C76.7686 2203.63 70.7463 2202.42 70.4266 2202.36C69.0868 2202.08 68.1554 2201.74 67.7569 2201.62C61.2601 2199.59 50.0211 2195.96 46.4889 2194.81C46.1803 2194.71 45.9942 2194.5 46.0001 2194.28C46.0594 2191.9 46.1189 2189.53 46.1779 2187.16" fill="#CECAC9"/>
<path d="M46.0002 2214.59C46.0936 2209.74 46.1867 2204.88 46.2798 2200.03C46.2897 2199.52 47.1093 2199.2 47.7881 2199.44C55.2132 2202.03 61.1387 2203.88 64.5759 2204.86C67.7522 2205.76 70.6703 2206.45 72.6834 2206.93C73.832 2207.2 74.4846 2207.35 75.3536 2207.49C78.7862 2208.07 81.4861 2208 82.1565 2207.97C82.8668 2207.95 85.146 2207.84 87.9463 2207.21C89.4623 2206.86 92.2563 2206.21 95.0704 2204.57C95.6604 2204.23 97.9559 2202.85 99.7201 2200.49C99.8595 2200.31 99.9898 2200.12 100.111 2199.94C101.209 2198.3 101.697 2196.5 101.697 2194.71L101.697 2092.1C101.697 2091.62 102.418 2091.28 103.106 2091.44C106.502 2092.23 109.898 2093.03 113.295 2093.82C113.717 2093.92 114 2094.18 114 2094.48L114 2203.05C114 2203.58 113.96 2204.12 113.858 2204.65C113.683 2205.56 113.379 2206.66 112.842 2207.88C112.511 2208.62 111.063 2211.74 107.197 2215.06C102.918 2218.74 98.0775 2220.61 96.4862 2221.19C95.2237 2221.65 89.4186 2223.69 81.1435 2223.97C73.6834 2224.22 68.0552 2222.94 66.3796 2222.53C63.1453 2221.73 62.3431 2221.17 55.3845 2218.81C52.3329 2217.78 49.6774 2216.94 47.6279 2216.31C46.619 2216 45.9859 2215.33 46.0002 2214.59Z" fill="#D0AC5F"/>
</g>
<defs>
<clipPath id="clip0_4022_39">
<rect width="320" height="160" fill="white" transform="translate(160) rotate(90)"/>
</clipPath>
<clipPath id="clip1_4022_39">
<rect width="320" height="160" fill="white" transform="translate(160 320) rotate(90)"/>
</clipPath>
<clipPath id="clip2_4022_39">
<rect width="320" height="160" fill="white" transform="translate(160 640) rotate(90)"/>
</clipPath>
<clipPath id="clip3_4022_39">
<rect width="320" height="160" fill="white" transform="translate(160 960) rotate(90)"/>
</clipPath>
<clipPath id="clip4_4022_39">
<rect width="320" height="160" fill="white" transform="translate(160 1280) rotate(90)"/>
</clipPath>
<clipPath id="clip5_4022_39">
<rect width="320" height="160" fill="white" transform="translate(160 1600) rotate(90)"/>
</clipPath>
<clipPath id="clip6_4022_39">
<rect width="320" height="160" fill="white" transform="translate(160 1920) rotate(90)"/>
</clipPath>
</defs>
</svg>
