<svg width="2240" height="160" viewBox="0 0 2240 160" fill="none" xmlns="http://www.w3.org/2000/svg">
<g clip-path="url(#clip0_1656_2)">
<mask id="mask0_1656_2" style="mask-type:luminance" maskUnits="userSpaceOnUse" x="0" y="0" width="320" height="160">
<path d="M320 3.81596e-06L0 0L-1.90798e-06 160L320 160L320 3.81596e-06Z" fill="white"/>
</mask>
<g mask="url(#mask0_1656_2)">
<g opacity="0.1">
<path d="M52.839 46.178C53.2768 46.189 53.5568 46.882 53.3649 47.472C52.2099 51.021 51.2392 54.071 50.4802 56.481C49.1216 60.7929 48.4633 62.9626 48.2805 63.5473C47.3956 66.3785 46.6823 69.3372 45.6775 72.077C45.5823 72.3359 44.9103 74.1636 44.3192 76.7312C43.827 78.8684 43.784 79.8112 43.7749 80.2736C43.7602 81.0288 43.7407 82.7761 44.4398 84.5939C45.0403 86.156 45.8586 86.9555 46.2861 87.3628C47.5182 88.5367 48.7365 88.7603 49.3883 88.803L150.844 88.8031C151.605 88.8031 152.158 89.887 151.959 90.9886C151.674 92.5657 151.39 94.1427 151.105 95.7198C150.969 96.4753 150.512 97 149.99 97L47.1166 97C46.5139 97 45.9138 96.9171 45.3259 96.719C45.0287 96.6188 44.7067 96.4935 44.3657 96.3354C42.2222 95.3414 40.8046 93.7386 40.3774 93.2337C39.6546 92.3796 38.1586 90.5714 37.2013 87.4738C37.1707 87.3752 37.1476 87.2962 37.1418 87.2757C36.4221 84.8265 36.409 82.7024 36.4006 81.317C36.3725 76.7686 37.5796 70.7463 37.6445 70.4266C37.9177 69.0868 38.2589 68.1554 38.3832 67.7569C40.4057 61.2601 44.0437 50.021 45.1886 46.489C45.2884 46.18 45.4961 45.994 45.725 46C48.0962 46.059 50.4676 46.119 52.839 46.178Z" fill="#CECAC9"/>
<path d="M25.4096 46C30.2636 46.094 35.1175 46.187 39.9713 46.28C40.479 46.29 40.7978 47.109 40.5609 47.788C37.9726 55.213 36.1212 61.1387 35.1426 64.576C34.2381 67.7522 33.5477 70.6703 33.0712 72.6834C32.7993 73.832 32.6545 74.4846 32.5074 75.3536C31.9256 78.7862 32.0036 81.4861 32.0285 82.1565C32.0545 82.8668 32.163 85.146 32.7947 87.9464C33.1367 89.4623 33.7875 92.2563 35.4289 95.0704C35.773 95.6604 37.1548 97.9559 39.5078 99.7202C39.6938 99.8595 39.8776 99.9898 40.0594 100.111C41.7022 101.209 43.4953 101.697 45.2917 101.697L147.9 101.697C148.383 101.697 148.72 102.418 148.56 103.106C147.766 106.502 146.973 109.898 146.18 113.295C146.081 113.717 145.817 114 145.52 114L36.9511 114C36.4155 114 35.8831 113.96 35.3519 113.859C34.4363 113.683 33.337 113.379 32.124 112.842C31.3773 112.511 28.2634 111.063 24.9401 107.197C21.2619 102.919 19.3891 98.0776 18.8097 96.4862C18.3503 95.2238 16.3074 89.4186 16.0321 81.1435C15.7837 73.6834 17.0561 68.0552 17.4687 66.3796C18.2653 63.1453 18.8338 62.3431 21.1879 55.384C22.2206 52.333 23.0618 49.677 23.6918 47.628C24.002 46.619 24.6733 45.986 25.4096 46Z" fill="#D0AC5F"/>
<path d="M267.161 113.822C266.723 113.811 266.443 113.118 266.635 112.528C267.79 108.979 268.761 105.929 269.52 103.519C270.879 99.2071 271.537 97.0374 271.72 96.4528C272.604 93.6215 273.318 90.6628 274.323 87.923C274.418 87.6641 275.09 85.8364 275.681 83.2688C276.173 81.1316 276.216 80.1888 276.225 79.7264C276.24 78.9712 276.259 77.2239 275.56 75.4061C274.96 73.844 274.141 73.0445 273.714 72.6372C272.482 71.4634 271.264 71.2398 270.612 71.197L169.156 71.1969C168.395 71.1969 167.842 70.113 168.041 69.0114C168.326 67.4343 168.61 65.8573 168.895 64.2802C169.031 63.5247 169.488 63 170.01 63L272.884 63C273.486 63 274.086 63.0829 274.674 63.281C274.971 63.3812 275.293 63.5065 275.634 63.6646C277.778 64.6586 279.196 66.2615 279.623 66.7663C280.345 67.6205 281.841 69.4286 282.799 72.5262C282.829 72.6248 282.853 72.7039 282.858 72.7243C283.578 75.1735 283.591 77.2976 283.6 78.683C283.628 83.2314 282.421 89.2537 282.356 89.5734C282.082 90.9132 281.741 91.8446 281.617 92.2431C279.594 98.7399 275.956 109.979 274.812 113.511C274.712 113.82 274.504 114.006 274.275 114C271.904 113.941 269.533 113.881 267.161 113.822Z" fill="#CECAC9"/>
<path d="M294.591 114C289.737 113.906 284.883 113.813 280.029 113.72C279.521 113.71 279.202 112.891 279.439 112.212C282.027 104.787 283.879 98.8613 284.857 95.4241C285.762 92.2478 286.452 89.3297 286.929 87.3166C287.201 86.168 287.346 85.5154 287.493 84.6464C288.074 81.2138 287.996 78.5139 287.972 77.8435C287.946 77.1332 287.837 74.854 287.205 72.0537C286.863 70.5377 286.213 67.7437 284.571 64.9296C284.227 64.3396 282.845 62.0441 280.492 60.2799C280.306 60.1405 280.122 60.0102 279.941 59.889C278.298 58.791 276.505 58.303 274.708 58.303L172.1 58.303C171.617 58.303 171.28 57.582 171.44 56.894C172.234 53.498 173.027 50.102 173.82 46.705C173.919 46.283 174.183 46 174.48 46L283.049 46C283.585 46 284.117 46.04 284.648 46.142C285.564 46.317 286.663 46.621 287.876 47.158C288.623 47.489 291.737 48.937 295.06 52.803C298.738 57.082 300.611 61.9225 301.19 63.5138C301.65 64.7763 303.693 70.5814 303.968 78.8565C304.216 86.3166 302.944 91.9448 302.531 93.6204C301.735 96.8547 301.166 97.6569 298.812 104.616C297.78 107.667 296.938 110.323 296.308 112.372C295.998 113.381 295.327 114.014 294.591 114Z" fill="#D0AC5F"/>
</g>
</g>
<mask id="mask1_1656_2" style="mask-type:luminance" maskUnits="userSpaceOnUse" x="320" y="0" width="320" height="160">
<path d="M640 3.81596e-06L320 0L320 160L640 160L640 3.81596e-06Z" fill="white"/>
</mask>
<g mask="url(#mask1_1656_2)">
<g opacity="0.1">
<path d="M372.839 46.178C373.277 46.189 373.557 46.882 373.365 47.472C372.21 51.021 371.239 54.071 370.48 56.481C369.121 60.7929 368.463 62.9626 368.28 63.5473C367.396 66.3785 366.682 69.3372 365.677 72.077C365.582 72.3359 364.91 74.1636 364.319 76.7312C363.827 78.8684 363.784 79.8112 363.775 80.2736C363.76 81.0288 363.741 82.7761 364.44 84.5939C365.04 86.156 365.859 86.9555 366.286 87.3628C367.518 88.5367 368.736 88.7603 369.388 88.803L470.844 88.8031C471.605 88.8031 472.158 89.887 471.959 90.9886C471.674 92.5657 471.39 94.1427 471.105 95.7198C470.969 96.4753 470.512 97 469.99 97L367.116 97C366.514 97 365.914 96.9171 365.326 96.719C365.029 96.6188 364.707 96.4935 364.366 96.3354C362.222 95.3414 360.804 93.7386 360.377 93.2337C359.655 92.3796 358.159 90.5714 357.201 87.4738C357.171 87.3752 357.147 87.2962 357.142 87.2757C356.422 84.8265 356.409 82.7024 356.4 81.317C356.372 76.7686 357.579 70.7463 357.644 70.4266C357.918 69.0868 358.259 68.1554 358.383 67.7569C360.406 61.2601 364.044 50.021 365.188 46.489C365.288 46.18 365.496 45.994 365.725 46C368.096 46.059 370.467 46.119 372.839 46.178Z" fill="#CECAC9"/>
<path d="M345.409 46C350.263 46.094 355.117 46.187 359.971 46.28C360.479 46.29 360.798 47.109 360.561 47.788C357.973 55.213 356.121 61.1387 355.143 64.576C354.238 67.7522 353.548 70.6703 353.071 72.6834C352.799 73.832 352.654 74.4846 352.507 75.3536C351.926 78.7862 352.004 81.4861 352.028 82.1565C352.054 82.8668 352.163 85.146 352.795 87.9464C353.137 89.4623 353.787 92.2563 355.429 95.0704C355.773 95.6604 357.155 97.9559 359.508 99.7202C359.694 99.8595 359.878 99.9898 360.059 100.111C361.702 101.209 363.495 101.697 365.292 101.697L467.9 101.697C468.383 101.697 468.72 102.418 468.56 103.106C467.766 106.502 466.973 109.898 466.18 113.295C466.081 113.717 465.817 114 465.52 114L356.951 114C356.415 114 355.883 113.96 355.352 113.859C354.436 113.683 353.337 113.379 352.124 112.842C351.377 112.511 348.263 111.063 344.94 107.197C341.262 102.919 339.389 98.0776 338.81 96.4862C338.35 95.2238 336.307 89.4186 336.032 81.1435C335.784 73.6834 337.056 68.0552 337.469 66.3796C338.265 63.1453 338.834 62.3431 341.188 55.384C342.22 52.333 343.062 49.677 343.692 47.628C344.002 46.619 344.673 45.986 345.409 46Z" fill="#D0AC5F"/>
<path d="M587.161 113.822C586.723 113.811 586.443 113.118 586.635 112.528C587.79 108.979 588.761 105.929 589.52 103.519C590.879 99.2071 591.537 97.0374 591.72 96.4528C592.604 93.6215 593.318 90.6628 594.323 87.923C594.418 87.6641 595.09 85.8364 595.681 83.2688C596.173 81.1316 596.216 80.1888 596.225 79.7264C596.24 78.9712 596.259 77.2239 595.56 75.4061C594.96 73.844 594.141 73.0445 593.714 72.6372C592.482 71.4634 591.264 71.2398 590.612 71.197L489.156 71.1969C488.395 71.1969 487.842 70.113 488.041 69.0114C488.326 67.4343 488.61 65.8573 488.895 64.2802C489.031 63.5247 489.488 63 490.01 63L592.884 63C593.486 63 594.086 63.0829 594.674 63.281C594.971 63.3812 595.293 63.5065 595.634 63.6646C597.778 64.6586 599.196 66.2615 599.623 66.7663C600.345 67.6205 601.841 69.4286 602.799 72.5262C602.829 72.6248 602.853 72.7039 602.858 72.7243C603.578 75.1735 603.591 77.2976 603.6 78.683C603.628 83.2314 602.421 89.2537 602.356 89.5734C602.082 90.9132 601.741 91.8446 601.617 92.2431C599.594 98.7399 595.956 109.979 594.812 113.511C594.712 113.82 594.504 114.006 594.275 114C591.904 113.941 589.533 113.881 587.161 113.822Z" fill="#CECAC9"/>
<path d="M614.591 114C609.737 113.906 604.883 113.813 600.029 113.72C599.521 113.71 599.202 112.891 599.439 112.212C602.027 104.787 603.879 98.8613 604.857 95.4241C605.762 92.2478 606.452 89.3297 606.929 87.3166C607.201 86.168 607.346 85.5154 607.493 84.6464C608.074 81.2138 607.996 78.5139 607.972 77.8435C607.946 77.1332 607.837 74.854 607.205 72.0537C606.863 70.5377 606.213 67.7437 604.571 64.9296C604.227 64.3396 602.845 62.0441 600.492 60.2799C600.306 60.1405 600.122 60.0102 599.941 59.889C598.298 58.791 596.505 58.303 594.708 58.303L492.1 58.303C491.617 58.303 491.28 57.582 491.44 56.894C492.234 53.498 493.027 50.102 493.82 46.705C493.919 46.283 494.183 46 494.48 46L603.049 46C603.585 46 604.117 46.04 604.648 46.142C605.564 46.317 606.663 46.621 607.876 47.158C608.623 47.489 611.737 48.937 615.06 52.803C618.738 57.082 620.611 61.9225 621.19 63.5138C621.65 64.7763 623.693 70.5814 623.968 78.8565C624.216 86.3166 622.944 91.9448 622.531 93.6204C621.735 96.8547 621.166 97.6569 618.812 104.616C617.78 107.667 616.938 110.323 616.308 112.372C615.998 113.381 615.327 114.014 614.591 114Z" fill="#D0AC5F"/>
</g>
</g>
<mask id="mask2_1656_2" style="mask-type:luminance" maskUnits="userSpaceOnUse" x="640" y="0" width="320" height="160">
<path d="M960 3.81596e-06L640 0L640 160L960 160L960 3.81596e-06Z" fill="white"/>
</mask>
<g mask="url(#mask2_1656_2)">
<g opacity="0.1">
<path d="M692.839 46.178C693.277 46.189 693.557 46.882 693.365 47.472C692.21 51.021 691.239 54.071 690.48 56.481C689.121 60.7929 688.463 62.9626 688.28 63.5473C687.396 66.3785 686.682 69.3372 685.677 72.077C685.582 72.3359 684.91 74.1636 684.319 76.7312C683.827 78.8684 683.784 79.8112 683.775 80.2736C683.76 81.0288 683.741 82.7761 684.44 84.5939C685.04 86.156 685.859 86.9555 686.286 87.3628C687.518 88.5367 688.736 88.7603 689.388 88.803L790.844 88.8031C791.605 88.8031 792.158 89.887 791.959 90.9886C791.674 92.5657 791.39 94.1427 791.105 95.7198C790.969 96.4753 790.512 97 789.99 97L687.116 97C686.514 97 685.914 96.9171 685.326 96.719C685.029 96.6188 684.707 96.4935 684.366 96.3354C682.222 95.3414 680.804 93.7386 680.377 93.2337C679.655 92.3796 678.159 90.5714 677.201 87.4738C677.171 87.3752 677.147 87.2962 677.142 87.2757C676.422 84.8265 676.409 82.7024 676.4 81.317C676.372 76.7686 677.579 70.7463 677.644 70.4266C677.918 69.0868 678.259 68.1554 678.383 67.7569C680.406 61.2601 684.044 50.021 685.188 46.489C685.288 46.18 685.496 45.994 685.725 46C688.096 46.059 690.467 46.119 692.839 46.178Z" fill="#CECAC9"/>
<path d="M665.409 46C670.263 46.094 675.117 46.187 679.971 46.28C680.479 46.29 680.798 47.109 680.561 47.788C677.973 55.213 676.121 61.1387 675.143 64.576C674.238 67.7522 673.548 70.6703 673.071 72.6834C672.799 73.832 672.654 74.4846 672.507 75.3536C671.926 78.7862 672.004 81.4861 672.028 82.1565C672.054 82.8668 672.163 85.146 672.795 87.9464C673.137 89.4623 673.787 92.2563 675.429 95.0704C675.773 95.6604 677.155 97.9559 679.508 99.7202C679.694 99.8595 679.878 99.9898 680.059 100.111C681.702 101.209 683.495 101.697 685.292 101.697L787.9 101.697C788.383 101.697 788.72 102.418 788.56 103.106C787.766 106.502 786.973 109.898 786.18 113.295C786.081 113.717 785.817 114 785.52 114L676.951 114C676.415 114 675.883 113.96 675.352 113.859C674.436 113.683 673.337 113.379 672.124 112.842C671.377 112.511 668.263 111.063 664.94 107.197C661.262 102.919 659.389 98.0776 658.81 96.4862C658.35 95.2238 656.307 89.4186 656.032 81.1435C655.784 73.6834 657.056 68.0552 657.469 66.3796C658.265 63.1453 658.834 62.3431 661.188 55.384C662.22 52.333 663.062 49.677 663.692 47.628C664.002 46.619 664.673 45.986 665.409 46Z" fill="#D0AC5F"/>
<path d="M907.161 113.822C906.723 113.811 906.443 113.118 906.635 112.528C907.79 108.979 908.761 105.929 909.52 103.519C910.879 99.2071 911.537 97.0374 911.72 96.4528C912.604 93.6215 913.318 90.6628 914.323 87.923C914.418 87.6641 915.09 85.8364 915.681 83.2688C916.173 81.1316 916.216 80.1888 916.225 79.7264C916.24 78.9712 916.259 77.2239 915.56 75.4061C914.96 73.844 914.141 73.0445 913.714 72.6372C912.482 71.4634 911.264 71.2398 910.612 71.197L809.156 71.1969C808.395 71.1969 807.842 70.113 808.041 69.0114C808.326 67.4343 808.61 65.8573 808.895 64.2802C809.031 63.5247 809.488 63 810.01 63L912.884 63C913.486 63 914.086 63.0829 914.674 63.281C914.971 63.3812 915.293 63.5065 915.634 63.6646C917.778 64.6586 919.196 66.2615 919.623 66.7663C920.345 67.6205 921.841 69.4286 922.799 72.5262C922.829 72.6248 922.853 72.7039 922.858 72.7243C923.578 75.1735 923.591 77.2976 923.6 78.683C923.628 83.2314 922.421 89.2537 922.356 89.5734C922.082 90.9132 921.741 91.8446 921.617 92.2431C919.594 98.7399 915.956 109.979 914.812 113.511C914.712 113.82 914.504 114.006 914.275 114C911.904 113.941 909.533 113.881 907.161 113.822Z" fill="#CECAC9"/>
<path d="M934.591 114C929.737 113.906 924.883 113.813 920.029 113.72C919.521 113.71 919.202 112.891 919.439 112.212C922.027 104.787 923.879 98.8613 924.857 95.4241C925.762 92.2478 926.452 89.3297 926.929 87.3166C927.201 86.168 927.346 85.5154 927.493 84.6464C928.074 81.2138 927.996 78.5139 927.972 77.8435C927.946 77.1332 927.837 74.854 927.205 72.0537C926.863 70.5377 926.213 67.7437 924.571 64.9296C924.227 64.3396 922.845 62.0441 920.492 60.2799C920.306 60.1405 920.122 60.0102 919.941 59.889C918.298 58.791 916.505 58.303 914.708 58.303L812.1 58.303C811.617 58.303 811.28 57.582 811.44 56.894C812.234 53.498 813.027 50.102 813.82 46.705C813.919 46.283 814.183 46 814.48 46L923.049 46C923.585 46 924.117 46.04 924.648 46.142C925.564 46.317 926.663 46.621 927.876 47.158C928.623 47.489 931.737 48.937 935.06 52.803C938.738 57.082 940.611 61.9225 941.19 63.5138C941.65 64.7763 943.693 70.5814 943.968 78.8565C944.216 86.3166 942.944 91.9448 942.531 93.6204C941.735 96.8547 941.166 97.6569 938.812 104.616C937.78 107.667 936.938 110.323 936.308 112.372C935.998 113.381 935.327 114.014 934.591 114Z" fill="#D0AC5F"/>
</g>
</g>
<mask id="mask3_1656_2" style="mask-type:luminance" maskUnits="userSpaceOnUse" x="960" y="0" width="320" height="160">
<path d="M1280 3.81596e-06L960 0L960 160L1280 160L1280 3.81596e-06Z" fill="white"/>
</mask>
<g mask="url(#mask3_1656_2)">
<g opacity="0.1">
<path d="M1012.84 46.178C1013.28 46.189 1013.56 46.882 1013.36 47.472C1012.21 51.021 1011.24 54.071 1010.48 56.481C1009.12 60.7929 1008.46 62.9626 1008.28 63.5473C1007.4 66.3785 1006.68 69.3372 1005.68 72.077C1005.58 72.3359 1004.91 74.1636 1004.32 76.7312C1003.83 78.8684 1003.78 79.8112 1003.77 80.2736C1003.76 81.0288 1003.74 82.7761 1004.44 84.5939C1005.04 86.156 1005.86 86.9555 1006.29 87.3628C1007.52 88.5367 1008.74 88.7603 1009.39 88.803L1110.84 88.8031C1111.6 88.8031 1112.16 89.887 1111.96 90.9886C1111.67 92.5657 1111.39 94.1427 1111.11 95.7198C1110.97 96.4753 1110.51 97 1109.99 97L1007.12 97C1006.51 97 1005.91 96.9171 1005.33 96.719C1005.03 96.6188 1004.71 96.4935 1004.37 96.3354C1002.22 95.3414 1000.8 93.7386 1000.38 93.2337C999.655 92.3796 998.159 90.5714 997.201 87.4738C997.171 87.3752 997.147 87.2962 997.142 87.2757C996.422 84.8265 996.409 82.7024 996.4 81.317C996.372 76.7686 997.579 70.7463 997.644 70.4266C997.918 69.0868 998.259 68.1554 998.383 67.7569C1000.41 61.2601 1004.04 50.021 1005.19 46.489C1005.29 46.18 1005.5 45.994 1005.72 46C1008.1 46.059 1010.47 46.119 1012.84 46.178Z" fill="#CECAC9"/>
<path d="M985.409 46C990.263 46.094 995.117 46.187 999.971 46.28C1000.48 46.29 1000.8 47.109 1000.56 47.788C997.973 55.213 996.121 61.1387 995.143 64.576C994.238 67.7522 993.548 70.6703 993.071 72.6834C992.799 73.832 992.654 74.4846 992.507 75.3536C991.926 78.7862 992.004 81.4861 992.028 82.1565C992.054 82.8668 992.163 85.146 992.795 87.9464C993.137 89.4623 993.787 92.2563 995.429 95.0704C995.773 95.6604 997.155 97.9559 999.508 99.7202C999.694 99.8595 999.878 99.9898 1000.06 100.111C1001.7 101.209 1003.5 101.697 1005.29 101.697L1107.9 101.697C1108.38 101.697 1108.72 102.418 1108.56 103.106C1107.77 106.502 1106.97 109.898 1106.18 113.295C1106.08 113.717 1105.82 114 1105.52 114L996.951 114C996.415 114 995.883 113.96 995.352 113.859C994.436 113.683 993.337 113.379 992.124 112.842C991.377 112.511 988.263 111.063 984.94 107.197C981.262 102.919 979.389 98.0776 978.81 96.4862C978.35 95.2238 976.307 89.4186 976.032 81.1435C975.784 73.6834 977.056 68.0552 977.469 66.3796C978.265 63.1453 978.834 62.3431 981.188 55.384C982.22 52.333 983.062 49.677 983.692 47.628C984.002 46.619 984.673 45.986 985.409 46Z" fill="#D0AC5F"/>
<path d="M1227.16 113.822C1226.72 113.811 1226.44 113.118 1226.64 112.528C1227.79 108.979 1228.76 105.929 1229.52 103.519C1230.88 99.2071 1231.54 97.0374 1231.72 96.4528C1232.6 93.6215 1233.32 90.6628 1234.32 87.923C1234.42 87.6641 1235.09 85.8364 1235.68 83.2688C1236.17 81.1316 1236.22 80.1888 1236.23 79.7264C1236.24 78.9712 1236.26 77.2239 1235.56 75.4061C1234.96 73.844 1234.14 73.0445 1233.71 72.6372C1232.48 71.4634 1231.26 71.2398 1230.61 71.197L1129.16 71.1969C1128.4 71.1969 1127.84 70.113 1128.04 69.0114C1128.33 67.4343 1128.61 65.8573 1128.89 64.2802C1129.03 63.5247 1129.49 63 1130.01 63L1232.88 63C1233.49 63 1234.09 63.0829 1234.67 63.281C1234.97 63.3812 1235.29 63.5065 1235.63 63.6646C1237.78 64.6586 1239.2 66.2615 1239.62 66.7663C1240.35 67.6205 1241.84 69.4286 1242.8 72.5262C1242.83 72.6248 1242.85 72.7039 1242.86 72.7243C1243.58 75.1735 1243.59 77.2976 1243.6 78.683C1243.63 83.2314 1242.42 89.2537 1242.36 89.5734C1242.08 90.9132 1241.74 91.8446 1241.62 92.2431C1239.59 98.7399 1235.96 109.979 1234.81 113.511C1234.71 113.82 1234.5 114.006 1234.28 114C1231.9 113.941 1229.53 113.881 1227.16 113.822Z" fill="#CECAC9"/>
<path d="M1254.59 114C1249.74 113.906 1244.88 113.813 1240.03 113.72C1239.52 113.71 1239.2 112.891 1239.44 112.212C1242.03 104.787 1243.88 98.8613 1244.86 95.4241C1245.76 92.2478 1246.45 89.3297 1246.93 87.3166C1247.2 86.168 1247.35 85.5154 1247.49 84.6464C1248.07 81.2138 1248 78.5139 1247.97 77.8435C1247.95 77.1332 1247.84 74.854 1247.21 72.0537C1246.86 70.5377 1246.21 67.7437 1244.57 64.9296C1244.23 64.3396 1242.85 62.0441 1240.49 60.2799C1240.31 60.1405 1240.12 60.0102 1239.94 59.889C1238.3 58.791 1236.5 58.303 1234.71 58.303L1132.1 58.303C1131.62 58.303 1131.28 57.582 1131.44 56.894C1132.23 53.498 1133.03 50.102 1133.82 46.705C1133.92 46.283 1134.18 46 1134.48 46L1243.05 46C1243.58 46 1244.12 46.04 1244.65 46.142C1245.56 46.317 1246.66 46.621 1247.88 47.158C1248.62 47.489 1251.74 48.937 1255.06 52.803C1258.74 57.082 1260.61 61.9225 1261.19 63.5138C1261.65 64.7763 1263.69 70.5814 1263.97 78.8565C1264.22 86.3166 1262.94 91.9448 1262.53 93.6204C1261.73 96.8547 1261.17 97.6569 1258.81 104.616C1257.78 107.667 1256.94 110.323 1256.31 112.372C1256 113.381 1255.33 114.014 1254.59 114Z" fill="#D0AC5F"/>
</g>
</g>
<mask id="mask4_1656_2" style="mask-type:luminance" maskUnits="userSpaceOnUse" x="1280" y="0" width="320" height="160">
<path d="M1600 3.81596e-06L1280 0L1280 160L1600 160L1600 3.81596e-06Z" fill="white"/>
</mask>
<g mask="url(#mask4_1656_2)">
<g opacity="0.1">
<path d="M1332.84 46.178C1333.28 46.189 1333.56 46.882 1333.36 47.472C1332.21 51.021 1331.24 54.071 1330.48 56.481C1329.12 60.7929 1328.46 62.9626 1328.28 63.5473C1327.4 66.3785 1326.68 69.3372 1325.68 72.077C1325.58 72.3359 1324.91 74.1636 1324.32 76.7312C1323.83 78.8684 1323.78 79.8112 1323.77 80.2736C1323.76 81.0288 1323.74 82.7761 1324.44 84.5939C1325.04 86.156 1325.86 86.9555 1326.29 87.3628C1327.52 88.5367 1328.74 88.7603 1329.39 88.803L1430.84 88.8031C1431.6 88.8031 1432.16 89.887 1431.96 90.9886C1431.67 92.5657 1431.39 94.1427 1431.11 95.7198C1430.97 96.4753 1430.51 97 1429.99 97L1327.12 97C1326.51 97 1325.91 96.9171 1325.33 96.719C1325.03 96.6188 1324.71 96.4935 1324.37 96.3354C1322.22 95.3414 1320.8 93.7386 1320.38 93.2337C1319.65 92.3796 1318.16 90.5714 1317.2 87.4738C1317.17 87.3752 1317.15 87.2962 1317.14 87.2757C1316.42 84.8265 1316.41 82.7024 1316.4 81.317C1316.37 76.7686 1317.58 70.7463 1317.64 70.4266C1317.92 69.0868 1318.26 68.1554 1318.38 67.7569C1320.41 61.2601 1324.04 50.021 1325.19 46.489C1325.29 46.18 1325.5 45.994 1325.72 46C1328.1 46.059 1330.47 46.119 1332.84 46.178Z" fill="#CECAC9"/>
<path d="M1305.41 46C1310.26 46.094 1315.12 46.187 1319.97 46.28C1320.48 46.29 1320.8 47.109 1320.56 47.788C1317.97 55.213 1316.12 61.1387 1315.14 64.576C1314.24 67.7522 1313.55 70.6703 1313.07 72.6834C1312.8 73.832 1312.65 74.4846 1312.51 75.3536C1311.93 78.7862 1312 81.4861 1312.03 82.1565C1312.05 82.8668 1312.16 85.146 1312.79 87.9464C1313.14 89.4623 1313.79 92.2563 1315.43 95.0704C1315.77 95.6604 1317.15 97.9559 1319.51 99.7202C1319.69 99.8595 1319.88 99.9898 1320.06 100.111C1321.7 101.209 1323.5 101.697 1325.29 101.697L1427.9 101.697C1428.38 101.697 1428.72 102.418 1428.56 103.106C1427.77 106.502 1426.97 109.898 1426.18 113.295C1426.08 113.717 1425.82 114 1425.52 114L1316.95 114C1316.42 114 1315.88 113.96 1315.35 113.859C1314.44 113.683 1313.34 113.379 1312.12 112.842C1311.38 112.511 1308.26 111.063 1304.94 107.197C1301.26 102.919 1299.39 98.0776 1298.81 96.4862C1298.35 95.2238 1296.31 89.4186 1296.03 81.1435C1295.78 73.6834 1297.06 68.0552 1297.47 66.3796C1298.27 63.1453 1298.83 62.3431 1301.19 55.384C1302.22 52.333 1303.06 49.677 1303.69 47.628C1304 46.619 1304.67 45.986 1305.41 46Z" fill="#D0AC5F"/>
<path d="M1547.16 113.822C1546.72 113.811 1546.44 113.118 1546.64 112.528C1547.79 108.979 1548.76 105.929 1549.52 103.519C1550.88 99.2071 1551.54 97.0374 1551.72 96.4528C1552.6 93.6215 1553.32 90.6628 1554.32 87.923C1554.42 87.6641 1555.09 85.8364 1555.68 83.2688C1556.17 81.1316 1556.22 80.1888 1556.23 79.7264C1556.24 78.9712 1556.26 77.2239 1555.56 75.4061C1554.96 73.844 1554.14 73.0445 1553.71 72.6372C1552.48 71.4634 1551.26 71.2398 1550.61 71.197L1449.16 71.1969C1448.4 71.1969 1447.84 70.113 1448.04 69.0114C1448.33 67.4343 1448.61 65.8573 1448.89 64.2802C1449.03 63.5247 1449.49 63 1450.01 63L1552.88 63C1553.49 63 1554.09 63.0829 1554.67 63.281C1554.97 63.3812 1555.29 63.5065 1555.63 63.6646C1557.78 64.6586 1559.2 66.2615 1559.62 66.7663C1560.35 67.6205 1561.84 69.4286 1562.8 72.5262C1562.83 72.6248 1562.85 72.7039 1562.86 72.7243C1563.58 75.1735 1563.59 77.2976 1563.6 78.683C1563.63 83.2314 1562.42 89.2537 1562.36 89.5734C1562.08 90.9132 1561.74 91.8446 1561.62 92.2431C1559.59 98.7399 1555.96 109.979 1554.81 113.511C1554.71 113.82 1554.5 114.006 1554.28 114C1551.9 113.941 1549.53 113.881 1547.16 113.822Z" fill="#CECAC9"/>
<path d="M1574.59 114C1569.74 113.906 1564.88 113.813 1560.03 113.72C1559.52 113.71 1559.2 112.891 1559.44 112.212C1562.03 104.787 1563.88 98.8613 1564.86 95.4241C1565.76 92.2478 1566.45 89.3297 1566.93 87.3166C1567.2 86.168 1567.35 85.5154 1567.49 84.6464C1568.07 81.2138 1568 78.5139 1567.97 77.8435C1567.95 77.1332 1567.84 74.854 1567.21 72.0537C1566.86 70.5377 1566.21 67.7437 1564.57 64.9296C1564.23 64.3396 1562.85 62.0441 1560.49 60.2799C1560.31 60.1405 1560.12 60.0102 1559.94 59.889C1558.3 58.791 1556.5 58.303 1554.71 58.303L1452.1 58.303C1451.62 58.303 1451.28 57.582 1451.44 56.894C1452.23 53.498 1453.03 50.102 1453.82 46.705C1453.92 46.283 1454.18 46 1454.48 46L1563.05 46C1563.58 46 1564.12 46.04 1564.65 46.142C1565.56 46.317 1566.66 46.621 1567.88 47.158C1568.62 47.489 1571.74 48.937 1575.06 52.803C1578.74 57.082 1580.61 61.9225 1581.19 63.5138C1581.65 64.7763 1583.69 70.5814 1583.97 78.8565C1584.22 86.3166 1582.94 91.9448 1582.53 93.6204C1581.73 96.8547 1581.17 97.6569 1578.81 104.616C1577.78 107.667 1576.94 110.323 1576.31 112.372C1576 113.381 1575.33 114.014 1574.59 114Z" fill="#D0AC5F"/>
</g>
</g>
<mask id="mask5_1656_2" style="mask-type:luminance" maskUnits="userSpaceOnUse" x="1600" y="0" width="320" height="160">
<path d="M1920 3.81596e-06L1600 0L1600 160L1920 160L1920 3.81596e-06Z" fill="white"/>
</mask>
<g mask="url(#mask5_1656_2)">
<g opacity="0.1">
<path d="M1652.84 46.178C1653.28 46.189 1653.56 46.882 1653.36 47.472C1652.21 51.021 1651.24 54.071 1650.48 56.481C1649.12 60.7929 1648.46 62.9626 1648.28 63.5473C1647.4 66.3785 1646.68 69.3372 1645.68 72.077C1645.58 72.3359 1644.91 74.1636 1644.32 76.7312C1643.83 78.8684 1643.78 79.8112 1643.77 80.2736C1643.76 81.0288 1643.74 82.7761 1644.44 84.5939C1645.04 86.156 1645.86 86.9555 1646.29 87.3628C1647.52 88.5367 1648.74 88.7603 1649.39 88.803L1750.84 88.8031C1751.6 88.8031 1752.16 89.887 1751.96 90.9886C1751.67 92.5657 1751.39 94.1427 1751.11 95.7198C1750.97 96.4753 1750.51 97 1749.99 97L1647.12 97C1646.51 97 1645.91 96.9171 1645.33 96.719C1645.03 96.6188 1644.71 96.4935 1644.37 96.3354C1642.22 95.3414 1640.8 93.7386 1640.38 93.2337C1639.65 92.3796 1638.16 90.5714 1637.2 87.4738C1637.17 87.3752 1637.15 87.2962 1637.14 87.2757C1636.42 84.8265 1636.41 82.7024 1636.4 81.317C1636.37 76.7686 1637.58 70.7463 1637.64 70.4266C1637.92 69.0868 1638.26 68.1554 1638.38 67.7569C1640.41 61.2601 1644.04 50.021 1645.19 46.489C1645.29 46.18 1645.5 45.994 1645.72 46C1648.1 46.059 1650.47 46.119 1652.84 46.178Z" fill="#CECAC9"/>
<path d="M1625.41 46C1630.26 46.094 1635.12 46.187 1639.97 46.28C1640.48 46.29 1640.8 47.109 1640.56 47.788C1637.97 55.213 1636.12 61.1387 1635.14 64.576C1634.24 67.7522 1633.55 70.6703 1633.07 72.6834C1632.8 73.832 1632.65 74.4846 1632.51 75.3536C1631.93 78.7862 1632 81.4861 1632.03 82.1565C1632.05 82.8668 1632.16 85.146 1632.79 87.9464C1633.14 89.4623 1633.79 92.2563 1635.43 95.0704C1635.77 95.6604 1637.15 97.9559 1639.51 99.7202C1639.69 99.8595 1639.88 99.9898 1640.06 100.111C1641.7 101.209 1643.5 101.697 1645.29 101.697L1747.9 101.697C1748.38 101.697 1748.72 102.418 1748.56 103.106C1747.77 106.502 1746.97 109.898 1746.18 113.295C1746.08 113.717 1745.82 114 1745.52 114L1636.95 114C1636.42 114 1635.88 113.96 1635.35 113.859C1634.44 113.683 1633.34 113.379 1632.12 112.842C1631.38 112.511 1628.26 111.063 1624.94 107.197C1621.26 102.919 1619.39 98.0776 1618.81 96.4862C1618.35 95.2238 1616.31 89.4186 1616.03 81.1435C1615.78 73.6834 1617.06 68.0552 1617.47 66.3796C1618.27 63.1453 1618.83 62.3431 1621.19 55.384C1622.22 52.333 1623.06 49.677 1623.69 47.628C1624 46.619 1624.67 45.986 1625.41 46Z" fill="#D0AC5F"/>
<path d="M1867.16 113.822C1866.72 113.811 1866.44 113.118 1866.64 112.528C1867.79 108.979 1868.76 105.929 1869.52 103.519C1870.88 99.2071 1871.54 97.0374 1871.72 96.4528C1872.6 93.6215 1873.32 90.6628 1874.32 87.923C1874.42 87.6641 1875.09 85.8364 1875.68 83.2688C1876.17 81.1316 1876.22 80.1888 1876.23 79.7264C1876.24 78.9712 1876.26 77.2239 1875.56 75.4061C1874.96 73.844 1874.14 73.0445 1873.71 72.6372C1872.48 71.4634 1871.26 71.2398 1870.61 71.197L1769.16 71.1969C1768.4 71.1969 1767.84 70.113 1768.04 69.0114C1768.33 67.4343 1768.61 65.8573 1768.89 64.2802C1769.03 63.5247 1769.49 63 1770.01 63L1872.88 63C1873.49 63 1874.09 63.0829 1874.67 63.281C1874.97 63.3812 1875.29 63.5065 1875.63 63.6646C1877.78 64.6586 1879.2 66.2615 1879.62 66.7663C1880.35 67.6205 1881.84 69.4286 1882.8 72.5262C1882.83 72.6248 1882.85 72.7039 1882.86 72.7243C1883.58 75.1735 1883.59 77.2976 1883.6 78.683C1883.63 83.2314 1882.42 89.2537 1882.36 89.5734C1882.08 90.9132 1881.74 91.8446 1881.62 92.2431C1879.59 98.7399 1875.96 109.979 1874.81 113.511C1874.71 113.82 1874.5 114.006 1874.28 114C1871.9 113.941 1869.53 113.881 1867.16 113.822Z" fill="#CECAC9"/>
<path d="M1894.59 114C1889.74 113.906 1884.88 113.813 1880.03 113.72C1879.52 113.71 1879.2 112.891 1879.44 112.212C1882.03 104.787 1883.88 98.8613 1884.86 95.4241C1885.76 92.2478 1886.45 89.3297 1886.93 87.3166C1887.2 86.168 1887.35 85.5154 1887.49 84.6464C1888.07 81.2138 1888 78.5139 1887.97 77.8435C1887.95 77.1332 1887.84 74.854 1887.21 72.0537C1886.86 70.5377 1886.21 67.7437 1884.57 64.9296C1884.23 64.3396 1882.85 62.0441 1880.49 60.2799C1880.31 60.1405 1880.12 60.0102 1879.94 59.889C1878.3 58.791 1876.5 58.303 1874.71 58.303L1772.1 58.303C1771.62 58.303 1771.28 57.582 1771.44 56.894C1772.23 53.498 1773.03 50.102 1773.82 46.705C1773.92 46.283 1774.18 46 1774.48 46L1883.05 46C1883.58 46 1884.12 46.04 1884.65 46.142C1885.56 46.317 1886.66 46.621 1887.88 47.158C1888.62 47.489 1891.74 48.937 1895.06 52.803C1898.74 57.082 1900.61 61.9225 1901.19 63.5138C1901.65 64.7763 1903.69 70.5814 1903.97 78.8565C1904.22 86.3166 1902.94 91.9448 1902.53 93.6204C1901.73 96.8547 1901.17 97.6569 1898.81 104.616C1897.78 107.667 1896.94 110.323 1896.31 112.372C1896 113.381 1895.33 114.014 1894.59 114Z" fill="#D0AC5F"/>
</g>
</g>
<mask id="mask6_1656_2" style="mask-type:luminance" maskUnits="userSpaceOnUse" x="1920" y="0" width="320" height="160">
<path d="M2240 3.81596e-06L1920 0L1920 160L2240 160L2240 3.81596e-06Z" fill="white"/>
</mask>
<g mask="url(#mask6_1656_2)">
<g opacity="0.1">
<path d="M1972.84 46.178C1973.28 46.189 1973.56 46.882 1973.36 47.472C1972.21 51.021 1971.24 54.071 1970.48 56.481C1969.12 60.7929 1968.46 62.9626 1968.28 63.5473C1967.4 66.3785 1966.68 69.3372 1965.68 72.077C1965.58 72.3359 1964.91 74.1636 1964.32 76.7312C1963.83 78.8684 1963.78 79.8112 1963.77 80.2736C1963.76 81.0288 1963.74 82.7761 1964.44 84.5939C1965.04 86.156 1965.86 86.9555 1966.29 87.3628C1967.52 88.5367 1968.74 88.7603 1969.39 88.803L2070.84 88.8031C2071.6 88.8031 2072.16 89.887 2071.96 90.9886C2071.67 92.5657 2071.39 94.1427 2071.11 95.7198C2070.97 96.4753 2070.51 97 2069.99 97L1967.12 97C1966.51 97 1965.91 96.9171 1965.33 96.719C1965.03 96.6188 1964.71 96.4935 1964.37 96.3354C1962.22 95.3414 1960.8 93.7386 1960.38 93.2337C1959.65 92.3796 1958.16 90.5714 1957.2 87.4738C1957.17 87.3752 1957.15 87.2962 1957.14 87.2757C1956.42 84.8265 1956.41 82.7024 1956.4 81.317C1956.37 76.7686 1957.58 70.7463 1957.64 70.4266C1957.92 69.0868 1958.26 68.1554 1958.38 67.7569C1960.41 61.2601 1964.04 50.021 1965.19 46.489C1965.29 46.18 1965.5 45.994 1965.72 46C1968.1 46.059 1970.47 46.119 1972.84 46.178Z" fill="#CECAC9"/>
<path d="M1945.41 46C1950.26 46.094 1955.12 46.187 1959.97 46.28C1960.48 46.29 1960.8 47.109 1960.56 47.788C1957.97 55.213 1956.12 61.1387 1955.14 64.576C1954.24 67.7522 1953.55 70.6703 1953.07 72.6834C1952.8 73.832 1952.65 74.4846 1952.51 75.3536C1951.93 78.7862 1952 81.4861 1952.03 82.1565C1952.05 82.8668 1952.16 85.146 1952.79 87.9464C1953.14 89.4623 1953.79 92.2563 1955.43 95.0704C1955.77 95.6604 1957.15 97.9559 1959.51 99.7202C1959.69 99.8595 1959.88 99.9898 1960.06 100.111C1961.7 101.209 1963.5 101.697 1965.29 101.697L2067.9 101.697C2068.38 101.697 2068.72 102.418 2068.56 103.106C2067.77 106.502 2066.97 109.898 2066.18 113.295C2066.08 113.717 2065.82 114 2065.52 114L1956.95 114C1956.42 114 1955.88 113.96 1955.35 113.859C1954.44 113.683 1953.34 113.379 1952.12 112.842C1951.38 112.511 1948.26 111.063 1944.94 107.197C1941.26 102.919 1939.39 98.0776 1938.81 96.4862C1938.35 95.2238 1936.31 89.4186 1936.03 81.1435C1935.78 73.6834 1937.06 68.0552 1937.47 66.3796C1938.27 63.1453 1938.83 62.3431 1941.19 55.384C1942.22 52.333 1943.06 49.677 1943.69 47.628C1944 46.619 1944.67 45.986 1945.41 46Z" fill="#D0AC5F"/>
<path d="M2187.16 113.822C2186.72 113.811 2186.44 113.118 2186.64 112.528C2187.79 108.979 2188.76 105.929 2189.52 103.519C2190.88 99.2071 2191.54 97.0374 2191.72 96.4528C2192.6 93.6215 2193.32 90.6628 2194.32 87.923C2194.42 87.6641 2195.09 85.8364 2195.68 83.2688C2196.17 81.1316 2196.22 80.1888 2196.23 79.7264C2196.24 78.9712 2196.26 77.2239 2195.56 75.4061C2194.96 73.844 2194.14 73.0445 2193.71 72.6372C2192.48 71.4634 2191.26 71.2398 2190.61 71.197L2089.16 71.1969C2088.4 71.1969 2087.84 70.113 2088.04 69.0114C2088.33 67.4343 2088.61 65.8573 2088.89 64.2802C2089.03 63.5247 2089.49 63 2090.01 63L2192.88 63C2193.49 63 2194.09 63.0829 2194.67 63.281C2194.97 63.3812 2195.29 63.5065 2195.63 63.6646C2197.78 64.6586 2199.2 66.2615 2199.62 66.7663C2200.35 67.6205 2201.84 69.4286 2202.8 72.5262C2202.83 72.6248 2202.85 72.7039 2202.86 72.7243C2203.58 75.1735 2203.59 77.2976 2203.6 78.683C2203.63 83.2314 2202.42 89.2537 2202.36 89.5734C2202.08 90.9132 2201.74 91.8446 2201.62 92.2431C2199.59 98.7399 2195.96 109.979 2194.81 113.511C2194.71 113.82 2194.5 114.006 2194.28 114C2191.9 113.941 2189.53 113.881 2187.16 113.822Z" fill="#CECAC9"/>
<path d="M2214.59 114C2209.74 113.906 2204.88 113.813 2200.03 113.72C2199.52 113.71 2199.2 112.891 2199.44 112.212C2202.03 104.787 2203.88 98.8613 2204.86 95.4241C2205.76 92.2478 2206.45 89.3297 2206.93 87.3166C2207.2 86.168 2207.35 85.5154 2207.49 84.6464C2208.07 81.2138 2208 78.5139 2207.97 77.8435C2207.95 77.1332 2207.84 74.854 2207.21 72.0537C2206.86 70.5377 2206.21 67.7437 2204.57 64.9296C2204.23 64.3396 2202.85 62.0441 2200.49 60.2799C2200.31 60.1405 2200.12 60.0102 2199.94 59.889C2198.3 58.791 2196.5 58.303 2194.71 58.303L2092.1 58.303C2091.62 58.303 2091.28 57.582 2091.44 56.894C2092.23 53.498 2093.03 50.102 2093.82 46.705C2093.92 46.283 2094.18 46 2094.48 46L2203.05 46C2203.58 46 2204.12 46.04 2204.65 46.142C2205.56 46.317 2206.66 46.621 2207.88 47.158C2208.62 47.489 2211.74 48.937 2215.06 52.803C2218.74 57.082 2220.61 61.9225 2221.19 63.5138C2221.65 64.7763 2223.69 70.5814 2223.97 78.8565C2224.22 86.3166 2222.94 91.9448 2222.53 93.6204C2221.73 96.8547 2221.17 97.6569 2218.81 104.616C2217.78 107.667 2216.94 110.323 2216.31 112.372C2216 113.381 2215.33 114.014 2214.59 114Z" fill="#D0AC5F"/>
</g>
</g>
</g>
<defs>
<clipPath id="clip0_1656_2">
<rect width="160" height="2240" fill="white" transform="translate(0 160) rotate(-90)"/>
</clipPath>
</defs>
</svg>
